<?xml version="1.0" encoding="utf-8"?>
<!-- Generator: Adobe Illustrator 25.0.1, SVG Export Plug-In . SVG Version: 6.00 Build 0)  -->
<svg version="1.1" id="Layer_1" xmlns="http://www.w3.org/2000/svg" xmlns:xlink="http://www.w3.org/1999/xlink" x="0px" y="0px"
	 viewBox="0 0 100 100" style="enable-background:new 0 0 100 100;" xml:space="preserve">
<style type="text/css">
	.st0{fill:#333333;}
	.st1{fill:#FF6600;}
	.st2{fill:#FFFFFF;}
</style>
<g>
	<path class="st0" d="M59.36,8.61v9.07l11.59,9.46V8.61H59.36z M61.13,16.84v-6.46h8.04V23.4L61.13,16.84z"/>
	<polygon class="st1" points="69.17,10.38 69.17,23.4 61.13,16.84 61.13,10.38 	"/>
	<polygon class="st2" points="65.05,41.4 65.05,51.2 57,51.2 57,56.21 48.17,56.21 48.17,41.4 	"/>
	<polygon class="st2" points="65.05,66.72 65.05,72.8 48.17,72.8 48.17,57.99 57,57.99 57,66.72 	"/>
	<g>
		<polygon class="st0" points="82.79,34.52 81.67,35.89 74.87,30.34 73.1,28.9 70.95,27.14 59.36,17.68 41.59,3.17 9.58,29.05 
			7.8,30.49 1.12,35.89 0,34.52 41.59,0.89 59.36,15.39 61.13,16.84 69.17,23.4 70.95,24.85 		"/>
	</g>
	<g>
		<path class="st2" d="M15.77,39.62v22.49h22.49V39.62H15.77z M36.48,60.34H17.54V41.4h18.94V60.34z"/>
	</g>
	<g>
		<polygon class="st0" points="66.82,39.62 66.82,51.61 65.05,51.61 65.05,41.4 48.17,41.4 48.17,72.8 65.05,72.8 65.05,65.95 
			66.82,65.95 66.82,74.57 46.4,74.57 46.4,39.62 		"/>
	</g>
	<g>
		<rect x="73.1" y="28.48" class="st0" width="1.77" height="23.13"/>
	</g>
	<g>
		<polygon class="st0" points="74.87,65.95 74.87,74.57 7.8,74.57 7.8,28.63 9.58,28.63 9.58,72.8 73.1,72.8 73.1,65.95 		"/>
	</g>
	<path class="st0" d="M57,58.08v8.64h36.72v-8.64H57z M91.95,64.95H58.77v-5.09h33.18V64.95z"/>
	<rect x="66.82" y="66.72" class="st2" width="6.27" height="6.08"/>
	<rect x="58.77" y="59.85" class="st2" width="33.18" height="5.09"/>
	<path class="st0" d="M57,51.2v8.65h36.72V51.2H57z M58.77,58.08v-5.1h33.18v5.1H58.77z"/>
	<rect x="58.77" y="52.98" class="st2" width="33.18" height="5.1"/>
	<path class="st2" d="M70.95,27.14l-11.59-9.46L41.59,3.17L9.58,29.05V72.8H46.4V39.62h20.42V51.2h6.27V28.9L70.95,27.14z
		 M38.25,62.11H15.77V39.62h22.49V62.11z"/>
	<rect x="27.9" y="51.75" class="st1" width="8.58" height="8.58"/>
	<rect x="17.54" y="51.75" class="st1" width="8.58" height="8.58"/>
	<rect x="17.54" y="41.4" class="st1" width="8.58" height="8.58"/>
	<rect x="27.9" y="41.4" class="st1" width="8.58" height="8.58"/>
	<g>
		<polygon class="st0" points="78.99,82.72 77.22,82.72 77.22,74.37 98.23,74.37 98.23,62.11 92.83,62.11 92.83,60.33 100,60.33 
			100,76.14 78.99,76.14 		"/>
	</g>
	<path class="st0" d="M72.8,81.83v17.28h10.61V81.83H72.8z M81.64,97.34h-7.06V83.61h7.06V97.34z"/>
	<rect x="74.57" y="83.61" class="st2" width="7.06" height="13.73"/>
	<rect x="47.28" y="56.21" class="st0" width="10.11" height="1.77"/>
	<g>
		<rect x="26.13" y="40.51" class="st2" width="1.77" height="20.71"/>
	</g>
	<g>
		<rect x="16.66" y="49.98" class="st2" width="20.71" height="1.77"/>
	</g>
</g>
</svg>
