<?xml version="1.0" encoding="utf-8"?>
<!-- Generator: Adobe Illustrator 25.0.1, SVG Export Plug-In . SVG Version: 6.00 Build 0)  -->
<svg version="1.1" id="Layer_1" xmlns="http://www.w3.org/2000/svg" xmlns:xlink="http://www.w3.org/1999/xlink" x="0px" y="0px"
	 viewBox="0 0 100 100" style="enable-background:new 0 0 100 100;" xml:space="preserve">
<style type="text/css">
	.st0{fill:#FF6600;}
	.st1{fill:#333333;}
	.st2{fill:#FFFFFF;}
</style>
<g>
	<path class="st0" d="M47.29,23.58v22.54h46.88V23.58H47.29z M91.08,43.03h-40.7V26.67h40.7V43.03z"/>
	<rect x="54.38" y="30.28" class="st0" width="32.58" height="3.08"/>
	<rect x="45.49" y="23.58" class="st0" width="50.23" height="3.09"/>
	<path class="st0" d="M92.13,25.03c0,0.09-0.01,0.17-0.01,0.25l-1.54-0.16h-0.05l-1.49-0.07c0-0.49-0.02-0.99-0.07-1.47
		c-0.75-9.38-8.6-16.77-18.16-16.77c-9.56,0-17.43,7.39-18.16,16.77c-0.05,0.48-0.07,0.97-0.07,1.45l-3.08,0.21
		c-0.01-0.07-0.01-0.14-0.01-0.21c0-0.49,0.01-0.97,0.05-1.45C50.26,13.08,58.6,4.65,69.06,3.8c0.58-0.05,1.17-0.07,1.75-0.07
		c0.45,0,0.9,0.01,1.34,0.04c10.65,0.67,19.21,9.19,19.93,19.82C92.12,24.06,92.13,24.55,92.13,25.03z"/>
	<rect x="69.06" class="st0" width="3.09" height="4.5"/>
	<rect x="11.55" y="92.87" class="st1" width="3.09" height="7.13"/>
	<rect x="84.35" y="92.87" class="st1" width="3.08" height="7.13"/>
	<polygon class="st1" points="97.91,59.98 95.33,60.9 9.77,91.33 3.38,93.6 2.86,92.14 5.15,91.33 94.6,59.51 97.39,58.52 
		97.75,59.51 	"/>
	<path class="st1" d="M36.38,43.03c-1.32,1.87-3.5,3.09-5.96,3.09h65.68v10.3H3.89v-10.3h9.01c-2.46,0-4.64-1.23-5.96-3.09H0.8
		v16.48H99.2V43.03H36.38z"/>
	<path class="st1" d="M1.58,56.42v38h96.85v-38H1.58z M95.33,91.33H4.67V59.51h90.67V91.33z"/>
	<path class="st1" d="M38.93,21.83v-3.09H4.57v3.09h1.19c0.25,1.15,0.77,2.2,1.49,3.08H4.57V28h1.19c0.25,1.15,0.77,2.2,1.49,3.08
		c1.35,1.63,3.38,2.68,5.66,2.68h17.53c2.27,0,4.31-1.05,5.65-2.68c0.72-0.88,1.25-1.93,1.49-3.08h1.36v-3.09h-2.85
		c0.72-0.88,1.25-1.93,1.49-3.08H38.93z M30.43,30.68H12.9c-1.79,0-3.31-1.11-3.93-2.67h25.39C33.74,29.57,32.21,30.68,30.43,30.68z
		 M30.43,24.5H12.9c-1.79,0-3.31-1.11-3.93-2.67h25.39C33.74,23.39,32.21,24.5,30.43,24.5z"/>
	<path class="st2" d="M34.36,21.83c-0.62,1.57-2.14,2.67-3.93,2.67H12.9c-1.79,0-3.31-1.11-3.93-2.67H34.36z"/>
	<path class="st2" d="M34.36,28c-0.62,1.57-2.14,2.67-3.93,2.67H12.9c-1.79,0-3.31-1.11-3.93-2.67H34.36z"/>
	<path class="st1" d="M36.07,31.09c-1.34,1.63-3.38,2.68-5.65,2.68H12.9c-2.28,0-4.31-1.05-5.66-2.68H4.57v3.09h1.19
		c0.25,1.15,0.77,2.2,1.49,3.08c1.35,1.63,3.38,2.68,5.66,2.68h17.53c2.27,0,4.31-1.05,5.65-2.68c0.72-0.88,1.25-1.93,1.49-3.08
		h1.36v-3.09H36.07z M30.43,36.86H12.9c-1.79,0-3.31-1.11-3.93-2.68h25.39C33.74,35.74,32.21,36.86,30.43,36.86z"/>
	<path class="st2" d="M34.36,34.18c-0.62,1.57-2.14,2.68-3.93,2.68H12.9c-1.79,0-3.31-1.11-3.93-2.68H34.36z"/>
	<path class="st1" d="M36.07,37.26c-1.34,1.63-3.38,2.68-5.65,2.68H12.9c-2.28,0-4.31-1.05-5.66-2.68H4.57v3.09h1.19
		c0.21,0.98,0.62,1.89,1.19,2.68c1.32,1.87,3.5,3.09,5.96,3.09h17.53c2.46,0,4.64-1.23,5.96-3.09c0.57-0.79,0.98-1.7,1.19-2.68
		c0.11-0.5,0.17-1.01,0.17-1.55v-1.55H36.07z M30.43,43.03H12.9c-1.79,0-3.31-1.11-3.93-2.68h25.39
		C33.74,41.92,32.21,43.03,30.43,43.03z"/>
	<path class="st2" d="M34.36,40.35c-0.62,1.57-2.14,2.68-3.93,2.68H12.9c-1.79,0-3.31-1.11-3.93-2.68H34.36z"/>
	<path class="st1" d="M38.93,37.26v3.09h-1.36c0.11-0.5,0.17-1.01,0.17-1.55v-1.55H38.93z"/>
	<rect x="14.64" y="94.42" class="st1" width="69.7" height="0.95"/>
	<polygon class="st2" points="95.33,60.9 95.33,91.33 9.77,91.33 	"/>
	<path class="st1" d="M54.38,30.28v3.08h32.58v-3.08H54.38z M54.38,30.28v3.08h32.58v-3.08H54.38z M94.17,43.03V26.67h1.55v-3.09
		h-3.64C91.36,12.95,82.8,4.43,72.15,3.76V0h-3.09v3.8c-10.46,0.85-18.8,9.29-19.52,19.78h-4.05v3.09h1.8v16.36H36.38
		c-1.32,1.87-3.5,3.09-5.96,3.09h65.68v10.3H3.89v-10.3h9.01c-2.46,0-4.64-1.23-5.96-3.09H0.8v16.48h0.77v34.91h9.98V100h3.09v-5.58
		h69.7V100h3.08v-5.58h10.99V59.51h0.77V43.03H94.17z M70.81,6.81c9.56,0,17.41,7.39,18.16,16.77H52.65
		C53.39,14.21,61.25,6.81,70.81,6.81z M50.38,43.03V26.67h40.7v16.36H50.38z M94.6,59.51L5.15,91.33H4.67V59.51H94.6z M95.33,91.33
		H9.77L95.33,60.9V91.33z M54.38,33.37h32.58v-3.08H54.38V33.37z M54.38,30.28v3.08h32.58v-3.08H54.38z M54.38,30.28v3.08h32.58
		v-3.08H54.38z"/>
	<path class="st0" d="M88.97,23.58H52.65c0.73-9.37,8.6-16.77,18.16-16.77C80.37,6.81,88.23,14.2,88.97,23.58z"/>
	<path class="st2" d="M50.38,26.67v16.36h40.7V26.67H50.38z M86.96,33.37H54.38v-3.08h32.58V33.37z"/>
	<rect x="3.89" y="46.12" class="st2" width="92.21" height="10.3"/>
	<polygon class="st2" points="94.6,59.51 5.15,91.33 4.67,91.33 4.67,59.51 	"/>
</g>
</svg>
