<?xml version="1.0" encoding="utf-8"?>
<!-- Generator: Adobe Illustrator 25.0.1, SVG Export Plug-In . SVG Version: 6.00 Build 0)  -->
<svg version="1.1" id="Layer_1" xmlns="http://www.w3.org/2000/svg" xmlns:xlink="http://www.w3.org/1999/xlink" x="0px" y="0px"
	 viewBox="0 0 100 100" style="enable-background:new 0 0 100 100;" xml:space="preserve">
<style type="text/css">
	.st0{fill:#333333;}
	.st1{fill:#FFFFFF;}
	.st2{fill:#FF6600;}
</style>
<g>
	<path class="st0" d="M15.22,0l0,77.66h2.12l0-44.06v-2.12l0-29.35h53.14v95.75H17.34v-4.86h-2.12V100h57.4V0H15.22z"/>
	<path class="st1" d="M17.34,2.12l0,29.35h53.14V2.12H17.34z M26.21,27.3h-2.12V8.81h2.12V27.3z"/>
	<g>
		<polygon class="st0" points="92.59,39.83 92.59,94.44 72.17,94.44 72.17,92.31 90.46,92.31 90.46,41.95 72.17,41.95 72.17,39.83 
					"/>
	</g>
	<path class="st2" d="M82.73,72.7c0,5.83-4.74,10.62-10.58,10.67V62.03C77.99,62.08,82.73,66.87,82.73,72.7z"/>
	<path class="st0" d="M84.86,72.7c0,6.84-5.45,12.49-12.25,12.78c-0.14,0.01-0.29,0.01-0.43,0.01l-0.02-2.12c0.15,0,0.3,0,0.45-0.01
		c5.63-0.29,10.12-4.98,10.12-10.66c0-5.68-4.5-10.37-10.12-10.66c-0.15-0.01-0.3-0.01-0.45-0.01l0.02-2.13c0.14,0,0.29,0,0.43,0.01
		C79.4,60.2,84.86,65.85,84.86,72.7z"/>
	<path class="st1" d="M90.46,54.63v37.68H72.61v-6.84c6.79-0.29,12.25-5.94,12.25-12.78c0-6.85-5.45-12.49-12.25-12.79v-5.28H90.46z
		"/>
	<rect x="72.17" y="52.5" class="st0" width="19.35" height="2.13"/>
	<g>
		<path class="st0" d="M83.8,45.39c-1.57,0-2.84,1.27-2.84,2.84c0,1.57,1.27,2.84,2.84,2.84c1.57,0,2.84-1.27,2.84-2.84
			C86.63,46.66,85.36,45.39,83.8,45.39z M83.8,48.94c-0.39,0-0.71-0.32-0.71-0.71c0-0.39,0.32-0.71,0.71-0.71s0.71,0.32,0.71,0.71
			C84.5,48.62,84.19,48.94,83.8,48.94z"/>
	</g>
	<path class="st0" d="M77.47,45.39c-1.57,0-2.84,1.27-2.84,2.84c0,1.57,1.27,2.84,2.84,2.84c1.56,0,2.84-1.27,2.84-2.84
		C80.3,46.66,79.03,45.39,77.47,45.39z M77.47,48.94c-0.39,0-0.71-0.32-0.71-0.71c0-0.39,0.32-0.71,0.71-0.71s0.71,0.32,0.71,0.71
		C78.18,48.62,77.86,48.94,77.47,48.94z"/>
	<path class="st1" d="M72.61,41.95V52.5h17.85V41.95H72.61z M77.47,51.06c-1.57,0-2.84-1.27-2.84-2.84c0-1.57,1.27-2.84,2.84-2.84
		c1.56,0,2.84,1.27,2.84,2.84C80.3,49.79,79.03,51.06,77.47,51.06z M83.8,51.06c-1.57,0-2.84-1.27-2.84-2.84
		c0-1.57,1.27-2.84,2.84-2.84c1.57,0,2.84,1.27,2.84,2.84C86.63,49.79,85.36,51.06,83.8,51.06z"/>
	<path class="st1" d="M78.18,48.22c0,0.39-0.32,0.71-0.71,0.71s-0.71-0.32-0.71-0.71c0-0.39,0.32-0.71,0.71-0.71
		S78.18,47.83,78.18,48.22z"/>
	<path class="st1" d="M84.5,48.22c0,0.39-0.32,0.71-0.71,0.71s-0.71-0.32-0.71-0.71c0-0.39,0.32-0.71,0.71-0.71
		S84.5,47.83,84.5,48.22z"/>
	<g>
		<rect x="16.28" y="31.47" class="st0" width="55.26" height="2.12"/>
	</g>
	<g>
		<rect x="24.09" y="8.81" class="st0" width="2.12" height="18.5"/>
	</g>
	<g>
		<rect x="24.09" y="38.15" class="st0" width="2.12" height="18.37"/>
	</g>
	<path class="st0" d="M20.71,77.66h-8.87l-4.43,7.68l4.43,7.68h8.87l4.44-7.68L20.71,77.66z M17.34,89.55
		c-0.34,0.09-0.69,0.13-1.06,0.13c-0.37,0-0.72-0.05-1.06-0.13c-1.88-0.48-3.27-2.18-3.27-4.21c0-2.03,1.39-3.74,3.27-4.21
		c0.34-0.09,0.7-0.13,1.06-0.13c0.37,0,0.72,0.05,1.06,0.13c1.89,0.47,3.28,2.18,3.28,4.21C20.62,87.37,19.23,89.08,17.34,89.55z"/>
	<path class="st2" d="M20.62,85.34c0,2.03-1.39,3.74-3.28,4.21c-0.34,0.09-0.69,0.13-1.06,0.13c-0.37,0-0.72-0.05-1.06-0.13
		c-1.88-0.48-3.27-2.18-3.27-4.21c0-2.03,1.39-3.74,3.27-4.21c0.34-0.09,0.7-0.13,1.06-0.13c0.37,0,0.72,0.05,1.06,0.13
		C19.23,81.6,20.62,83.3,20.62,85.34z"/>
	<path class="st1" d="M17.34,33.6l0,44.06h3.37l4.44,7.68l-4.44,7.68h-3.37v4.86h53.15V33.6H17.34z M26.21,56.52h-2.12V38.15h2.12
		V56.52z"/>
</g>
</svg>
