<?xml version="1.0" encoding="utf-8"?>
<!-- Generator: Adobe Illustrator 25.0.1, SVG Export Plug-In . SVG Version: 6.00 Build 0)  -->
<svg version="1.1" id="Layer_1" xmlns="http://www.w3.org/2000/svg" xmlns:xlink="http://www.w3.org/1999/xlink" x="0px" y="0px"
	 viewBox="0 0 100 100" style="enable-background:new 0 0 100 100;" xml:space="preserve">
<style type="text/css">
	.st0{fill:#FFFFFF;}
	.st1{fill:#333333;}
	.st2{fill:#FF6600;}
</style>
<g>
	<g>
		<g>
			<polygon class="st0" points="51.41,42.61 50.79,43.23 44.74,37.18 43.98,36.43 44.6,35.8 44.74,35.93 			"/>
		</g>
		<g>
			<polygon class="st0" points="51.41,57.16 50.79,57.78 44.74,51.73 43.98,50.97 44.6,50.35 			"/>
		</g>
		<g>
			<polygon class="st0" points="51.41,72.31 50.79,72.93 44.74,66.88 43.98,66.12 44.6,65.5 44.74,65.63 			"/>
		</g>
		<g>
			<polygon class="st0" points="51.41,86.85 51.27,86.99 50.79,87.48 50.3,86.99 44.74,81.42 43.98,80.67 44.6,80.05 44.74,80.18 
							"/>
		</g>
	</g>
	<path class="st1" d="M43.86,28.27v59.61h12.29V28.27H43.86z M44.74,86.99V29.15h10.53v57.85H44.74z"/>
	<polygon class="st1" points="50.3,86.99 44.74,86.99 44.74,81.42 	"/>
	<polygon class="st1" points="55.27,29.15 55.27,86.99 51.27,86.99 51.41,86.85 44.74,80.18 44.74,66.88 50.79,72.93 51.41,72.31 
		44.74,65.63 44.74,51.73 50.79,57.78 51.41,57.16 44.74,50.48 44.74,37.18 50.79,43.23 51.41,42.61 44.74,35.93 44.74,29.15 	"/>
	<path class="st1" d="M65.04,86.99H34.96c-2.97,0-5.39,2.41-5.39,5.39v5.18h40.86v-5.18C70.43,89.41,68.01,86.99,65.04,86.99z
		 M69.55,96.68h-39.1v-4.3c0-2.48,2.02-4.51,4.51-4.51h30.08c2.48,0,4.51,2.02,4.51,4.51V96.68z"/>
	<path class="st1" d="M69.55,92.38v4.3h-39.1v-4.3c0-2.48,2.02-4.51,4.51-4.51h30.08C67.53,87.88,69.55,89.9,69.55,92.38z"/>
	<g>
		<rect x="48.04" y="15.21" class="st1" width="3.92" height="13.5"/>
	</g>
	<g>
		<rect x="11.37" y="19.62" class="st1" width="77.26" height="0.88"/>
	</g>
	<g>
		<path class="st2" d="M18.73,19.62c7.15-3.43,14.77-5.65,22.68-6.57l0.96-1.67c-9.29,0.96-18.2,3.62-26.49,7.94l-0.59,0.31
			l-0.12,0.06l0.18,0.52l0.02,0.11l-0.07,0.19L1.6,61.06H0v0.78c0,8.93,7.26,16.2,16.19,16.2c8.93,0,16.2-7.27,16.2-16.2v-0.78
			h-1.61L17.09,20.51l-0.02-0.06l0.34-0.17C17.85,20.05,18.29,19.83,18.73,19.62z M30.83,62.61l-0.04,0.46
			c-0.64,7.51-7.05,13.4-14.6,13.4c-7.54,0-13.96-5.89-14.59-13.4l-0.04-0.46H30.83z M29.15,61.06H3.24L16.19,22.7L29.15,61.06z"/>
	</g>
	<path class="st1" d="M18.73,19.62c7.15-3.43,14.77-5.65,22.68-6.57l0.96-1.67c-9.29,0.96-18.2,3.62-26.49,7.94l-0.59,0.31
		l-0.12,0.06l0.18,0.52l0.02,0.11l-0.07,0.19L1.6,61.06H0v0.78c0,8.93,7.26,16.2,16.19,16.2c8.93,0,16.2-7.27,16.2-16.2v-0.78h-1.61
		L17.09,20.51l-0.02-0.06l0.34-0.17C17.85,20.05,18.29,19.83,18.73,19.62z M30.83,62.61l-0.04,0.46c-0.64,7.51-7.05,13.4-14.6,13.4
		c-7.54,0-13.96-5.89-14.59-13.4l-0.04-0.46H30.83z M29.15,61.06H3.24L16.19,22.7L29.15,61.06z"/>
	<path class="st1" d="M30.83,62.61l-0.04,0.46c-0.64,7.51-7.05,13.4-14.6,13.4c-7.54,0-13.96-5.89-14.59-13.4l-0.04-0.46H30.83z"/>
	<g>
		<path class="st2" d="M98.4,61.06L84.7,20.51l-0.1-0.29l-0.67,0.22l-0.19,0.04l-0.61-0.22l0.33-0.64l0.23-0.45
			c-8.17-4.21-16.94-6.82-26.06-7.78l0.96,1.67c7.85,0.95,15.41,3.15,22.51,6.55c0.48,0.23,0.95,0.46,1.42,0.7l0.41,0.09l-0.03,0.09
			L69.22,61.06h-1.6v0.78c0,8.93,7.26,16.2,16.2,16.2c8.92,0,16.19-7.27,16.19-16.2v-0.78H98.4z M83.81,22.7l12.95,38.36H70.85
			L83.81,22.7z M98.4,63.08c-0.63,7.51-7.04,13.4-14.58,13.4c-7.56,0-13.97-5.89-14.6-13.4l-0.04-0.46h29.27L98.4,63.08z"/>
	</g>
	<path class="st1" d="M98.4,61.06L84.7,20.51l-0.1-0.29l-0.67,0.22l-0.19,0.04l-0.61-0.22l0.33-0.64l1.17,0.03
		c-9.1-4.79-17.88-7.3-27-8.25l0.96,1.67c7.85,0.95,15.41,3.15,22.51,6.55c0.48,0.23,0.95,0.46,1.42,0.7l0.41,0.09l-0.03,0.09
		L69.22,61.06h-1.6v0.78c0,8.93,7.26,16.2,16.2,16.2c8.92,0,16.19-7.27,16.19-16.2v-0.78H98.4z M83.81,22.7l12.95,38.36H70.85
		L83.81,22.7z M98.4,63.08c-0.63,7.51-7.04,13.4-14.58,13.4c-7.56,0-13.97-5.89-14.6-13.4l-0.04-0.46h29.27L98.4,63.08z"/>
	<path class="st1" d="M98.44,62.61l-0.04,0.46c-0.63,7.51-7.04,13.4-14.58,13.4c-7.56,0-13.97-5.89-14.6-13.4l-0.04-0.46H98.44z"/>
	<g>
		<circle class="st2" cx="11.37" cy="20.06" r="2.53"/>
	</g>
	<g>
		<circle class="st2" cx="88.63" cy="20.06" r="2.53"/>
	</g>
	<g>
		<polygon class="st2" points="50,2.44 42.34,15.71 57.67,15.71 		"/>
	</g>
</g>
</svg>
