<?xml version="1.0" encoding="utf-8"?>
<!-- Generator: Adobe Illustrator 25.0.1, SVG Export Plug-In . SVG Version: 6.00 Build 0)  -->
<svg version="1.1" id="Layer_1" xmlns="http://www.w3.org/2000/svg" xmlns:xlink="http://www.w3.org/1999/xlink" x="0px" y="0px"
	 viewBox="0 0 100 100" style="enable-background:new 0 0 100 100;" xml:space="preserve">
<style type="text/css">
	.st0{fill:#333333;}
	.st1{fill:#FF6600;}
</style>
<g>
	<path class="st0" d="M62.04,47.08c-0.12-0.52-0.27-1.04-0.45-1.55c-0.04-0.14-0.09-0.28-0.15-0.43c-0.19-0.5-0.56-0.89-1.04-1.1
		c-0.48-0.21-1.02-0.22-1.51-0.03c-0.02,0-0.03,0.01-0.05,0.02c-1.68,1.79-4.5,3.01-7.72,3.16c1.26-0.04,2.5-0.16,3.73-0.38
		c0.53-0.1,1.05-0.21,1.57-0.33c0.17-0.05,0.34-0.09,0.52-0.13c0.12-0.03,0.24-0.06,0.36-0.1c0.1-0.02,0.19-0.05,0.28-0.08
		c0.18-0.05,0.36-0.11,0.53-0.17c0.23-0.07,0.46-0.15,0.69-0.24c0.23-0.08,0.45-0.17,0.68-0.25c0.12-0.05,0.23-0.02,0.28,0
		c0.05,0.02,0.15,0.08,0.19,0.21c0.61,1.6,0.92,3.3,0.92,5.03c0,6.36-4.11,11.82-10.1,13.61c-0.26,0.08-0.53,0.15-0.8,0.22
		c-0.27-0.06-0.53-0.13-0.8-0.22c-5.99-1.79-10.1-7.26-10.1-13.61c0-1.86,0.35-3.68,1.05-5.39c0.06-0.13,0.15-0.18,0.21-0.21
		c0.03-0.01,0.08-0.02,0.13-0.02c0.04,0,0.09,0,0.14,0.03c2.95,1.29,6.09,1.98,9.33,2.04c-3.28-0.12-6.16-1.35-7.87-3.16
		c-0.28-0.11-0.55-0.22-0.83-0.34c-0.49-0.21-1.02-0.22-1.51-0.02c-0.5,0.2-0.88,0.59-1.09,1.09c-0.11,0.27-0.21,0.54-0.3,0.81
		c-0.18,0.51-0.32,1.02-0.45,1.55c-0.29,1.18-0.42,2.4-0.42,3.63c0,0.19,0,0.37,0.01,0.55v0c0.02,0.54,0.07,1.07,0.13,1.59v0
		c0.19,1.48,0.6,2.89,1.17,4.21c0.22,0.51,0.46,1,0.74,1.48c0,0,0,0,0,0c2.13,3.76,5.78,6.57,10.26,7.59l0.18,0.04l0.18-0.04
		c4.49-1.02,8.14-3.83,10.27-7.6v0c0.27-0.48,0.52-0.97,0.74-1.48l0,0c0.57-1.31,0.97-2.73,1.16-4.2v0
		c0.07-0.53,0.12-1.06,0.13-1.59v0c0.01-0.19,0.01-0.37,0.01-0.55C62.46,49.47,62.32,48.26,62.04,47.08z"/>
	<path class="st0" d="M60.87,50.7c0,6.36-4.11,11.82-10.1,13.61v-6.25h-1.6v6.25c-5.99-1.79-10.1-7.26-10.1-13.61
		c0-1.86,0.35-3.68,1.05-5.39c0.06-0.13,0.15-0.18,0.21-0.21c0.03-0.01,0.08-0.02,0.13-0.02c0.04,0,0.09,0,0.14,0.03
		c2.95,1.29,6.09,1.98,9.33,2.04c0.17,0,0.34,0.01,0.52,0.01h0c0.22,0,0.44-0.01,0.66-0.01c1.26-0.04,2.5-0.16,3.73-0.38
		c0.53-0.1,1.05-0.21,1.57-0.33c0.17-0.05,0.34-0.09,0.52-0.13c0.12-0.03,0.24-0.06,0.36-0.1c0.1-0.02,0.19-0.05,0.28-0.08
		c0.18-0.05,0.36-0.11,0.53-0.17c0.23-0.07,0.46-0.15,0.69-0.24c0.23-0.08,0.45-0.17,0.68-0.25c0.12-0.05,0.23-0.02,0.28,0
		c0.05,0.02,0.15,0.08,0.19,0.21C60.56,47.27,60.87,48.97,60.87,50.7z"/>
	<g>
		<path class="st0" d="M58.91,40.1c0,3.01-3.79,5.46-8.45,5.46h-0.02c-4.65,0-8.44-2.45-8.44-5.46c0-3.01,3.79-5.46,8.45-5.46
			C55.12,34.64,58.91,37.09,58.91,40.1z"/>
	</g>
	<g>
		<g>
			<path class="st0" d="M60.9,47.16v-1.6c1.5,0,2.69-0.49,3.65-1.51c2.82-2.99,2.46-9.35,2.46-9.42l1.59-0.1
				c0.02,0.29,0.4,7.11-2.89,10.61C64.46,46.48,62.84,47.16,60.9,47.16z"/>
		</g>
		<g>
			<rect x="61.21" y="51.25" class="st0" width="7.94" height="1.6"/>
		</g>
		<g>
			<path class="st0" d="M68.62,66.16l-1.6,0c0.02-6.15-5.29-7.64-7.34-7.69l0.04-1.6C62.21,56.94,68.64,58.73,68.62,66.16z"/>
		</g>
	</g>
	<g>
		<g>
			<path class="st0" d="M39.1,47.16c-1.93,0-3.55-0.68-4.81-2.02c-3.29-3.5-2.9-10.32-2.89-10.61l1.59,0.1
				c0,0.06-0.36,6.43,2.46,9.42c0.96,1.02,2.15,1.51,3.65,1.51V47.16z"/>
		</g>
		<g>
			<rect x="30.85" y="51.25" class="st0" width="7.94" height="1.6"/>
		</g>
		<g>
			<path class="st0" d="M31.38,66.16c-0.02-7.43,6.41-9.22,8.89-9.29l0.04,1.6c-2.05,0.05-7.36,1.54-7.34,7.69L31.38,66.16z"/>
		</g>
	</g>
	<g>
		<path class="st0" d="M50.77,64.31v1.04h-1.6v-1.04c0.26,0.08,0.53,0.15,0.8,0.22C50.24,64.47,50.5,64.4,50.77,64.31z"/>
	</g>
	<path class="st0" d="M89.37,48.94c-0.56-20.87-17.44-37.75-38.31-38.31c-0.35-0.01-0.71-0.01-1.06-0.01s-0.71,0.01-1.06,0.01
		c-20.87,0.56-37.75,17.44-38.31,38.31c-0.01,0.35-0.01,0.71-0.01,1.06c0,0.36,0.01,0.71,0.01,1.06
		c0.56,20.87,17.43,37.75,38.31,38.31c0.35,0.01,0.71,0.01,1.06,0.01s0.71-0.01,1.06-0.01c20.87-0.56,37.75-17.44,38.31-38.31
		c0.01-0.35,0.01-0.71,0.01-1.06C89.39,49.64,89.38,49.29,89.37,48.94z M51.06,87.24c-0.35,0.01-0.71,0.02-1.06,0.02
		s-0.71,0-1.06-0.02c-19.7-0.55-35.62-16.47-36.17-36.17c-0.01-0.35-0.02-0.71-0.02-1.06c0-0.36,0-0.71,0.02-1.06
		c0.55-19.7,16.47-35.62,36.17-36.17c0.35-0.01,0.71-0.02,1.06-0.02s0.71,0,1.06,0.02c19.7,0.55,35.62,16.47,36.17,36.17
		c0.01,0.35,0.02,0.71,0.02,1.06c0,0.36,0,0.71-0.02,1.06C86.69,70.76,70.76,86.69,51.06,87.24z"/>
	<path class="st1" d="M50.77,58.06v6.25c-0.26,0.08-0.53,0.15-0.8,0.22c-0.27-0.06-0.53-0.13-0.8-0.22v-6.25H50.77z"/>
	<g>
		<rect x="48.94" y="0" class="st0" width="2.12" height="23.03"/>
	</g>
	<g>
		<rect y="48.94" class="st0" width="23.03" height="2.12"/>
	</g>
	<g>
		<rect x="48.94" y="76.97" class="st0" width="2.12" height="23.03"/>
	</g>
	<g>
		<rect x="76.97" y="48.94" class="st0" width="23.03" height="2.12"/>
	</g>
</g>
</svg>
