<?xml version="1.0" encoding="utf-8"?>
<!-- Generator: Adobe Illustrator 25.0.1, SVG Export Plug-In . SVG Version: 6.00 Build 0)  -->
<svg version="1.1" id="Layer_1" xmlns="http://www.w3.org/2000/svg" xmlns:xlink="http://www.w3.org/1999/xlink" x="0px" y="0px"
	 viewBox="0 0 100 100" style="enable-background:new 0 0 100 100;" xml:space="preserve">
<style type="text/css">
	.st0{fill:#FF6600;}
	.st1{fill:#333333;}
	.st2{fill:#FFFFFF;}
</style>
<path class="st0" d="M-91.07,111.75c8.93-1.87,15.93-4.57,21.42-7.79l-0.38,0.94l-0.03,0.07c-0.43,0.85-0.88,1.7-1.34,2.53
	c-2.65,4.8-6.15,8.76-10.4,11.8c-2.62,1.87-5.38,2.39-8.21,1.57c-5.9-1.71-11.58-1.72-17.39-0.02c-3.02,0.88-6.01,0.23-8.86-1.94
	c-2.73-2.07-5.13-4.54-7.35-7.55l-0.03-0.05l-0.75-1.08c3.41,1.72,7.57,3.17,12.64,4.23l2.72,0.57l-1.91-2.03
	c-4.8-5.1-8.37-9.3-10.77-12.7c5.02,5.75,11.9,11.43,15.55,14.44l2.28,1.89l-0.08-1.97c-0.67-15.13-2.97-20.94-11.21-28.27
	c-6.19-5.51-13.91-7.41-19.54-8.81c-0.13-0.03-0.26-0.07-0.39-0.1l-0.05-1.01c0.01-4.25,0.76-7.99,2.27-11.45
	c3.02-6.88,8.3-10.47,15.71-10.66c3.44-0.09,6.57,0.19,9.3,0.85c5.76,1.4,11.75,1.33,19.43-0.22c3.56-0.71,7.1-0.85,10.27-0.42
	c4.41,0.61,8.01,2.52,10.69,5.66l0.51,0.67c-6.24,2.03-12.94,5.02-18.72,10.17c-12.04,10.71-15.4,19.22-16.38,41.38l-0.09,1.97
	l2.65-2.2c6.77-5.59,20.18-16.66,27.25-26.74c-3.04,5.94-9.28,13.8-19.63,24.79l-1.91,2.03L-91.07,111.75z"/>
<g>
	<g>
		<path class="st1" d="M20.24,86.66c-0.23-0.11-0.42-0.17-0.59-0.19c0.23,0.12,0.47,0.25,0.71,0.37L20.24,86.66z M75.15,80.43
			l-0.05,0.12c0.2-0.12,0.39-0.23,0.59-0.35C75.52,80.25,75.34,80.32,75.15,80.43z"/>
		<path class="st1" d="M79.02,78l-0.95,1.96C74.55,87.4,70.5,92.78,65.3,96.89c-3.69,2.92-7.67,3.77-11.84,2.52
			c-4.98-1.49-9.88-1.49-14.99,0.02c-1.29,0.38-2.56,0.57-3.78,0.57c-2.9,0-5.59-1.07-8.03-3.19c-1.82-1.58-3.74-3.31-5.4-5.21
			c-1.3-1.49-2.51-3.15-3.7-5.08l-1.27-2.1c1.02,0.71,2.14,1.39,3.36,2.04c0.23,0.12,0.47,0.25,0.71,0.37l0.75,1.08l0.03,0.05
			c2.21,3.01,4.62,5.48,7.35,7.55c2.86,2.17,5.84,2.82,8.86,1.94c5.81-1.7,11.49-1.69,17.39,0.02c2.83,0.82,5.59,0.29,8.21-1.57
			c4.25-3.04,7.75-7,10.4-11.8c0.46-0.83,0.91-1.68,1.34-2.53l0.03-0.07l0.38-0.94c0.2-0.12,0.39-0.23,0.59-0.35
			C76.87,79.49,77.98,78.75,79.02,78z"/>
	</g>
	<g>
		<path class="st1" d="M77.81,37.51c0,0-0.01,0-0.02,0.01l0.05,0.07L77.81,37.51z"/>
		<path class="st1" d="M80.11,36.8c-0.76,0.22-1.53,0.46-2.3,0.71c0,0-0.01,0-0.02,0.01l-0.51-0.67c-2.68-3.14-6.28-5.05-10.69-5.66
			c-3.16-0.44-6.71-0.3-10.27,0.42c-7.67,1.54-13.67,1.61-19.43,0.22c-2.73-0.66-5.86-0.94-9.3-0.85
			c-7.41,0.19-12.7,3.78-15.71,10.66c-1.52,3.46-2.26,7.2-2.27,11.45l0.05,1.01c-0.83-0.2-1.61-0.4-2.32-0.59l0.01-0.87
			c0.09-1.39,0.29-2.8,0.48-4.16c0.07-0.48,0.13-0.95,0.19-1.41c1.2-9.22,6.96-15.89,15.38-17.85c3.93-0.92,7.98-0.89,12.05,0.06
			c7.25,1.7,13.76,1.78,19.92,0.23c2.6-0.66,5.65-0.93,9.07-0.82c6.24,0.21,11.43,2.72,15,7.27L80.11,36.8z"/>
	</g>
	<path class="st1" d="M24.52,0c-0.01,0-0.02,0-0.03,0c0.31,14.87,10.19,25.16,25.89,26.18C49.58,11.22,39.63-0.01,24.52,0z"/>
	<path class="st0" d="M94.73,33.14c-1.87,0.67-4.23,1.25-6.97,1.93c-8.23,2.04-19.51,4.82-28.51,12.83
		C47.29,58.55,43.94,67.01,42.97,89.08l-0.06,1.33l2.15-1.78c7.3-6.03,22.9-18.91,29.11-29.67c-1.77,5.01-6.54,12.65-21.1,28.12
		l-1.29,1.37l1.84-0.39c40.53-8.48,41.15-34.22,41.48-48.05c0.06-2.51,0.11-4.69,0.41-6.21l0.19-1.02L94.73,33.14z M55.24,86.5
		c9.96-10.69,14.94-17.68,17.51-22.67c2.57-5,2.73-7.99,3.05-10.7C73.3,64.18,52.86,80.65,44.31,87.71l-0.09,0.08
		c1.03-20.68,4.4-28.85,15.83-39.01c8.78-7.81,19.89-10.56,28-12.56c2.34-0.58,4.41-1.09,6.16-1.65c-0.18,1.49-0.23,3.34-0.27,5.42
		C93.6,53.28,93.01,77.83,55.24,86.5z"/>
	<path class="st2" d="M94.63,32.87c-1.85,0.66-4.2,1.25-6.94,1.93c-2.32,0.57-4.89,1.2-7.58,2c-0.76,0.22-1.53,0.46-2.3,0.71
		c-0.01,0-0.01,0.01-0.02,0.01c-6.25,2.03-12.95,5.02-18.73,10.17C47.03,58.4,43.66,66.9,42.69,89.06l-0.09,1.97l2.65-2.19
		c6.77-5.59,20.18-16.67,27.25-26.74c-3.04,5.94-9.28,13.79-19.63,24.79l-1.91,2.03l2.72-0.57c8.93-1.87,15.93-4.57,21.42-7.79
		c0.2-0.12,0.4-0.24,0.59-0.36c1.18-0.71,2.29-1.45,3.33-2.2c15.73-11.51,16.13-27.89,16.37-37.97c0.06-2.51,0.11-4.67,0.4-6.17
		l0.28-1.5L94.63,32.87z M56.08,86.01c18.57-20.06,19.32-26.78,19.93-32.2l0.07-0.65l-0.56-0.1c-2.37,10.52-21.23,26.07-30.3,33.54
		l-0.69,0.57c1.06-20.16,4.34-28.08,15.7-38.18c8.73-7.76,19.79-10.5,27.88-12.5c2.18-0.54,4.09-1.01,5.76-1.52
		c-0.14,1.41-0.18,3.08-0.23,5.01C93.33,53.03,92.74,77.21,56.08,86.01z"/>
	<path class="st1" d="M93.87,34.97c-0.14,1.41-0.18,3.08-0.23,5.01c-0.32,13.04-0.9,37.23-37.56,46.03
		c18.57-20.06,19.32-26.79,19.93-32.2l0.07-0.65l-0.56-0.1c-2.37,10.52-21.23,26.06-30.3,33.53l-0.69,0.57
		c1.06-20.15,4.34-28.07,15.7-38.17c8.73-7.76,19.8-10.5,27.88-12.5C90.29,35.95,92.2,35.48,93.87,34.97z"/>
	<path class="st0" d="M38.78,91.13l1.79,1.48l-0.06-1.33c-0.66-15.03-2.95-20.8-11.11-28.07c-6.14-5.46-13.82-7.36-19.42-8.74
		c-1.85-0.46-3.45-0.85-4.71-1.3l-0.97-0.35l0.19,1.02c0.19,1.02,0.23,2.49,0.27,4.18c0.23,9.43,0.65,27,28.29,32.78l1.85,0.39
		l-1.29-1.37c-7.99-8.49-11.63-13.49-13.34-16.88C25.06,79.8,34.25,87.39,38.78,91.13z M5.94,57.98c-0.03-1.28-0.06-2.44-0.16-3.4
		c1.13,0.34,2.44,0.67,3.91,1.03c5.49,1.36,12.99,3.22,18.92,8.48c7.63,6.79,9.93,12.25,10.65,25.9
		c-5.93-4.9-19.65-15.77-21.31-23.09c0.43,3.66,0.34,8.13,13.47,22.31C6.55,83.24,6.16,66.87,5.94,57.98z"/>
	<path class="st2" d="M38.6,91.34l2.28,1.89l-0.09-1.97c-0.66-15.12-2.97-20.94-11.2-28.27c-6.19-5.5-13.91-7.41-19.54-8.8
		c-0.13-0.03-0.26-0.07-0.39-0.1c-0.83-0.2-1.61-0.4-2.32-0.6c-0.73-0.19-1.39-0.39-1.97-0.6l-1.44-0.51l0.28,1.5
		c0.19,0.99,0.23,2.45,0.27,4.14c0.16,7.03,0.44,18.53,11.81,26.41c1.03,0.71,2.15,1.39,3.36,2.04c0.23,0.12,0.47,0.24,0.71,0.37
		c3.41,1.71,7.57,3.17,12.63,4.23l2.73,0.57l-1.91-2.03c-4.8-5.1-8.37-9.3-10.76-12.7C28.07,82.65,34.95,88.33,38.6,91.34z
		 M6.11,54.97c1.05,0.3,2.25,0.6,3.52,0.91c5.45,1.35,12.92,3.2,18.79,8.42c7.46,6.64,9.78,12.09,10.52,25.07l-0.72-0.6
		c-6.45-5.3-18.46-15.17-19.99-21.93l-0.55,0.1l0.06,0.53c0.38,3.47,0.89,8.2,12.85,21.24C6.82,82.61,6.43,66.62,6.23,57.96
		C6.2,56.83,6.17,55.84,6.11,54.97z"/>
	<path class="st1" d="M18.23,66.84l-0.56,0.09l0.06,0.53c0.38,3.47,0.89,8.2,12.85,21.24C6.82,82.61,6.43,66.62,6.23,57.96
		c-0.03-1.12-0.05-2.12-0.12-2.99c1.05,0.31,2.25,0.6,3.52,0.92c5.45,1.35,12.92,3.2,18.79,8.42c7.46,6.63,9.77,12.09,10.52,25.06
		l-0.72-0.59C31.77,83.47,19.76,73.6,18.23,66.84z"/>
	<path class="st0" d="M77.79,37.52c-6.25,2.03-12.95,5.02-18.73,10.17C47.03,58.4,43,67.06,42.03,89.22l-0.06,1.73
		c-0.68-15.07-4.16-20.64-12.38-27.96c-6.19-5.5-13.91-7.41-19.54-8.8c-0.13-0.03-0.26-0.07-0.39-0.1l-0.05-1.01
		c0.01-4.25,0.76-8,2.27-11.45c3.02-6.88,8.3-10.47,15.72-10.66c3.43-0.09,6.57,0.19,9.29,0.85c5.77,1.4,11.76,1.33,19.43-0.22
		c3.56-0.71,7.1-0.85,10.27-0.41c4.41,0.61,8,2.52,10.69,5.66L77.79,37.52z"/>
	<polygon class="st2" points="41.97,91.03 41.96,91.05 41.97,90.95 	"/>
	<path class="st2" d="M75.1,80.56l-0.37,0.94l-0.04,0.07c-0.43,0.84-0.88,1.7-1.34,2.52c-2.65,4.8-6.15,8.77-10.4,11.8
		c-2.62,1.87-5.38,2.4-8.21,1.57c-5.89-1.7-11.58-1.71-17.39-0.02c-3.02,0.88-6,0.23-8.86-1.94c-2.73-2.06-5.13-4.53-7.35-7.54
		l-0.03-0.05l-0.75-1.07c3.41,1.71,7.57,3.17,12.63,4.23l2.73,0.57l-1.91-2.03c-4.8-5.1-8.37-9.3-10.76-12.7
		c5.02,5.74,11.9,11.42,15.55,14.43l2.28,1.89l1.08-2.18l-0.01,0.33l3.3-2.54c6.77-5.59,20.18-16.67,27.25-26.74
		c-3.04,5.94-9.28,13.79-19.63,24.79l-1.91,2.03l2.72-0.57C62.61,86.48,69.61,83.78,75.1,80.56z"/>
	<g>
		<path class="st2" d="M49.76,26.29c-2.92-3.87-6.15-7.55-9.48-11.1c-3.36-3.53-6.82-6.99-10.72-9.93
			c-0.03-0.03-0.05-0.06-0.04-0.07c0.01-0.01,0.04,0,0.08,0.02c3.99,2.83,7.57,6.19,11.04,9.63c3.45,3.46,6.79,7.04,9.87,10.87
			c0.43,0.54,0.61,1.13,0.42,1.3c-0.19,0.18-0.69-0.12-1.11-0.65L49.76,26.29z"/>
	</g>
</g>
</svg>
