<?xml version="1.0" encoding="utf-8"?>
<!-- Generator: Adobe Illustrator 25.0.1, SVG Export Plug-In . SVG Version: 6.00 Build 0)  -->
<svg version="1.1" id="Layer_1" xmlns="http://www.w3.org/2000/svg" xmlns:xlink="http://www.w3.org/1999/xlink" x="0px" y="0px"
	 viewBox="0 0 100 100" style="enable-background:new 0 0 100 100;" xml:space="preserve">
<style type="text/css">
	.st0{fill:#333333;}
	.st1{fill:#FF6600;}
	.st2{fill:#FFFFFF;}
</style>
<g>
	<g>
		<path class="st0" d="M20.2,86.7c-0.2-0.1-0.4-0.2-0.6-0.2c0.2,0.1,0.5,0.2,0.7,0.4L20.2,86.7z M75.2,80.4l-0.1,0.1
			c0.2-0.1,0.4-0.2,0.6-0.3C75.5,80.2,75.3,80.3,75.2,80.4z"/>
		<path class="st0" d="M79,78l-0.9,2c-3.5,7.4-7.6,12.8-12.8,16.9c-3.7,2.9-7.7,3.8-11.8,2.5c-5-1.5-9.9-1.5-15,0
			c-1.3,0.4-2.6,0.6-3.8,0.6c-2.9,0-5.6-1.1-8-3.2c-1.8-1.6-3.7-3.3-5.4-5.2c-1.3-1.5-2.5-3.2-3.7-5.1l-1.3-2.1c1,0.7,2.1,1.4,3.4,2
			c0.2,0.1,0.5,0.2,0.7,0.4l0.8,1.1l0,0.1c2.2,3,4.6,5.5,7.4,7.6c2.9,2.2,5.8,2.8,8.9,1.9c5.8-1.7,11.5-1.7,17.4,0
			c2.8,0.8,5.6,0.3,8.2-1.6c4.2-3,7.7-7,10.4-11.8c0.5-0.8,0.9-1.7,1.3-2.5l0-0.1l0.4-0.9c0.2-0.1,0.4-0.2,0.6-0.3
			C76.9,79.5,78,78.8,79,78z"/>
	</g>
	<g>
		<path class="st0" d="M77.8,37.5C77.8,37.5,77.8,37.5,77.8,37.5L77.8,37.5L77.8,37.5z"/>
		<path class="st0" d="M80.1,36.8c-0.8,0.2-1.5,0.5-2.3,0.7c0,0,0,0,0,0l-0.5-0.7c-2.7-3.1-6.3-5-10.7-5.7
			c-3.2-0.4-6.7-0.3-10.3,0.4c-7.7,1.5-13.7,1.6-19.4,0.2c-2.7-0.7-5.9-0.9-9.3-0.9c-7.4,0.2-12.7,3.8-15.7,10.7
			c-1.5,3.5-2.3,7.2-2.3,11.5l0.1,1c-0.8-0.2-1.6-0.4-2.3-0.6l0-0.9c0.1-1.4,0.3-2.8,0.5-4.2C7.9,48,8,47.5,8,47.1
			c1.2-9.2,7-15.9,15.4-17.9c3.9-0.9,8-0.9,12,0.1c7.2,1.7,13.8,1.8,19.9,0.2c2.6-0.7,5.7-0.9,9.1-0.8c6.2,0.2,11.4,2.7,15,7.3
			L80.1,36.8z"/>
	</g>
	<path class="st0" d="M24.5,0C24.5,0,24.5,0,24.5,0c0.3,14.9,10.2,25.2,25.9,26.2C49.6,11.2,39.6,0,24.5,0z"/>
	<path class="st1" d="M94.7,33.1c-1.9,0.7-4.2,1.2-7,1.9c-8.2,2-19.5,4.8-28.5,12.8C47.3,58.5,43.9,67,43,89.1l-0.1,1.3l2.2-1.8
		c7.3-6,22.9-18.9,29.1-29.7c-1.8,5-6.5,12.7-21.1,28.1l-1.3,1.4l1.8-0.4c40.5-8.5,41.2-34.2,41.5-48c0.1-2.5,0.1-4.7,0.4-6.2l0.2-1
		L94.7,33.1z M55.2,86.5c10-10.7,14.9-17.7,17.5-22.7c2.6-5,2.7-8,3.1-10.7c-2.5,11-22.9,27.5-31.5,34.6l-0.1,0.1
		c1-20.7,4.4-28.8,15.8-39c8.8-7.8,19.9-10.6,28-12.6c2.3-0.6,4.4-1.1,6.2-1.7C94,36.1,94,37.9,93.9,40C93.6,53.3,93,77.8,55.2,86.5
		z"/>
	<path class="st2" d="M94.6,32.9c-1.8,0.7-4.2,1.2-6.9,1.9c-2.3,0.6-4.9,1.2-7.6,2c-0.8,0.2-1.5,0.5-2.3,0.7c0,0,0,0,0,0
		c-6.2,2-12.9,5-18.7,10.2C47,58.4,43.7,66.9,42.7,89.1l-0.1,2l2.7-2.2c6.8-5.6,20.2-16.7,27.2-26.7c-3,5.9-9.3,13.8-19.6,24.8
		l-1.9,2l2.7-0.6c8.9-1.9,15.9-4.6,21.4-7.8c0.2-0.1,0.4-0.2,0.6-0.4c1.2-0.7,2.3-1.4,3.3-2.2c15.7-11.5,16.1-27.9,16.4-38
		c0.1-2.5,0.1-4.7,0.4-6.2l0.3-1.5L94.6,32.9z M56.1,86C74.7,66,75.4,59.2,76,53.8l0.1-0.7l-0.6-0.1c-2.4,10.5-21.2,26.1-30.3,33.5
		l-0.7,0.6C45.6,67,48.9,59.1,60.2,49C69,41.2,80,38.5,88.1,36.5c2.2-0.5,4.1-1,5.8-1.5c-0.1,1.4-0.2,3.1-0.2,5
		C93.3,53,92.7,77.2,56.1,86z"/>
	<path class="st0" d="M93.9,35c-0.1,1.4-0.2,3.1-0.2,5c-0.3,13-0.9,37.2-37.6,46C74.6,66,75.4,59.2,76,53.8l0.1-0.7l-0.6-0.1
		c-2.4,10.5-21.2,26.1-30.3,33.5l-0.7,0.6C45.6,67,48.9,59.1,60.2,49C69,41.2,80,38.5,88.1,36.5C90.3,36,92.2,35.5,93.9,35z"/>
	<path class="st1" d="M38.8,91.1l1.8,1.5l-0.1-1.3c-0.7-15-3-20.8-11.1-28.1c-6.1-5.5-13.8-7.4-19.4-8.7c-1.9-0.5-3.4-0.8-4.7-1.3
		l-1-0.3l0.2,1c0.2,1,0.2,2.5,0.3,4.2C5,67.5,5.4,85,33,90.8l1.8,0.4l-1.3-1.4c-8-8.5-11.6-13.5-13.3-16.9
		C25.1,79.8,34.2,87.4,38.8,91.1z M5.9,58c0-1.3-0.1-2.4-0.2-3.4c1.1,0.3,2.4,0.7,3.9,1c5.5,1.4,13,3.2,18.9,8.5
		c7.6,6.8,9.9,12.2,10.7,25.9C33.3,85.1,19.6,74.2,18,66.9c0.4,3.7,0.3,8.1,13.5,22.3C6.6,83.2,6.2,66.9,5.9,58z"/>
	<path class="st2" d="M38.6,91.3l2.3,1.9l-0.1-2c-0.7-15.1-3-20.9-11.2-28.3c-6.2-5.5-13.9-7.4-19.5-8.8c-0.1,0-0.3-0.1-0.4-0.1
		c-0.8-0.2-1.6-0.4-2.3-0.6c-0.7-0.2-1.4-0.4-2-0.6l-1.4-0.5l0.3,1.5c0.2,1,0.2,2.5,0.3,4.1c0.2,7,0.4,18.5,11.8,26.4
		c1,0.7,2.1,1.4,3.4,2c0.2,0.1,0.5,0.2,0.7,0.4c3.4,1.7,7.6,3.2,12.6,4.2l2.7,0.6l-1.9-2C29,84.5,25.4,80.3,23,76.9
		C28.1,82.7,35,88.3,38.6,91.3z M6.1,55c1,0.3,2.3,0.6,3.5,0.9c5.4,1.3,12.9,3.2,18.8,8.4c7.5,6.6,9.8,12.1,10.5,25.1l-0.7-0.6
		c-6.5-5.3-18.5-15.2-20-21.9l-0.5,0.1l0.1,0.5c0.4,3.5,0.9,8.2,12.9,21.2C6.8,82.6,6.4,66.6,6.2,58C6.2,56.8,6.2,55.8,6.1,55z"/>
	<path class="st0" d="M18.2,66.8l-0.6,0.1l0.1,0.5c0.4,3.5,0.9,8.2,12.9,21.2C6.8,82.6,6.4,66.6,6.2,58c0-1.1-0.1-2.1-0.1-3
		c1,0.3,2.3,0.6,3.5,0.9c5.4,1.3,12.9,3.2,18.8,8.4c7.5,6.6,9.8,12.1,10.5,25.1l-0.7-0.6C31.8,83.5,19.8,73.6,18.2,66.8z"/>
	<path class="st1" d="M77.8,37.5c-6.2,2-12.9,5-18.7,10.2C47,58.4,43,67.1,42,89.2L42,91c-0.7-15.1-4.2-20.6-12.4-28
		c-6.2-5.5-13.9-7.4-19.5-8.8c-0.1,0-0.3-0.1-0.4-0.1l-0.1-1c0-4.2,0.8-8,2.3-11.5c3-6.9,8.3-10.5,15.7-10.7
		c3.4-0.1,6.6,0.2,9.3,0.9c5.8,1.4,11.8,1.3,19.4-0.2c3.6-0.7,7.1-0.9,10.3-0.4c4.4,0.6,8,2.5,10.7,5.7L77.8,37.5z"/>
	<polygon class="st2" points="42,91 42,91.1 42,90.9 	"/>
	<path class="st2" d="M75.1,80.6l-0.4,0.9l0,0.1c-0.4,0.8-0.9,1.7-1.3,2.5c-2.7,4.8-6.2,8.8-10.4,11.8c-2.6,1.9-5.4,2.4-8.2,1.6
		c-5.9-1.7-11.6-1.7-17.4,0c-3,0.9-6,0.2-8.9-1.9c-2.7-2.1-5.1-4.5-7.4-7.5l0-0.1l-0.8-1.1c3.4,1.7,7.6,3.2,12.6,4.2l2.7,0.6l-1.9-2
		C29,84.5,25.4,80.3,23,76.9c5,5.7,11.9,11.4,15.6,14.4l2.3,1.9l1.1-2.2l0,0.3l3.3-2.5c6.8-5.6,20.2-16.7,27.2-26.7
		c-3,5.9-9.3,13.8-19.6,24.8l-1.9,2l2.7-0.6C62.6,86.5,69.6,83.8,75.1,80.6z"/>
	<g>
		<path class="st2" d="M49.8,26.3c-2.9-3.9-6.2-7.5-9.5-11.1c-3.4-3.5-6.8-7-10.7-9.9c0,0,0-0.1,0-0.1c0,0,0,0,0.1,0
			c4,2.8,7.6,6.2,11,9.6c3.5,3.5,6.8,7,9.9,10.9c0.4,0.5,0.6,1.1,0.4,1.3C50.7,27.2,50.2,26.9,49.8,26.3L49.8,26.3z"/>
	</g>
</g>
</svg>
