<?xml version="1.0" encoding="utf-8"?>
<!-- Generator: Adobe Illustrator 25.0.1, SVG Export Plug-In . SVG Version: 6.00 Build 0)  -->
<svg version="1.1" id="Layer_1" xmlns="http://www.w3.org/2000/svg" xmlns:xlink="http://www.w3.org/1999/xlink" x="0px" y="0px"
	 viewBox="0 0 100 100" style="enable-background:new 0 0 100 100;" xml:space="preserve">
<style type="text/css">
	.st0{fill:#FF6600;}
	.st1{fill:#333333;}
	.st2{fill:#FFFFFF;}
</style>
<g>
	<path class="st0" d="M91.84,38.24c-3.64,0-6.73,2.39-7.78,5.68c-0.07,0.23-0.14,0.46-0.19,0.7c-0.13,0.58-0.2,1.18-0.2,1.79
		c0,3.01,1.64,5.76,4.29,7.19l0.18,0.09v8l1.34,2.36l-1.41,2.64l1.41,2.84l-1.5,2.3l0.89,0.88l1.48,1.47l1.75,1.73l3.92-4.41V53.42
		l0.16-0.1c2.39-1.5,3.82-4.08,3.82-6.91C100,41.91,96.34,38.24,91.84,38.24z M94.88,71.06l-2.84,3.2l-2.61-2.58l1.35-2.06
		l-1.44-2.9l1.44-2.68l-1.51-2.65v-7.22l0.43,0.12c0.06,0.01,0.11,0.02,0.17,0.04l0.3,0.07c0.24,0.04,0.48,0.09,0.73,0.11
		c0.04,0.01,0.23,0.02,0.23,0.02c0.17,0.01,0.35,0.03,0.52,0.03l0.1,0h0.12l0.09,0c0.26,0,0.53-0.02,0.79-0.05
		c0.07,0,0.26-0.03,0.26-0.03c0.26-0.04,0.51-0.09,0.77-0.15l0.09-0.02c0.19-0.05,0.39-0.11,0.58-0.17L94.88,54V71.06z M95.17,52.59
		c-1.01,0.55-2.17,0.85-3.33,0.85c-1.02,0-2-0.21-2.91-0.62c-2.51-1.14-4.13-3.65-4.13-6.4c0-3.88,3.16-7.03,7.04-7.03
		c3.87,0,7.02,3.15,7.02,7.03C98.86,49,97.44,51.37,95.17,52.59z"/>
	<path class="st1" d="M91.84,38.24c-3.64,0-6.73,2.39-7.78,5.68c-0.07,0.23-0.14,0.46-0.19,0.7c-0.13,0.58-0.2,1.18-0.2,1.79
		c0,3.01,1.64,5.76,4.29,7.19l0.18,0.09v8l1.34,2.36l-1.41,2.64l1.41,2.84l-1.5,2.3l0.89,0.88l1.48,1.47l1.75,1.73l3.92-4.41V53.42
		l0.16-0.1c2.39-1.5,3.82-4.08,3.82-6.91C100,41.91,96.34,38.24,91.84,38.24z M94.88,71.06l-2.84,3.2l-2.61-2.58l1.35-2.06
		l-1.44-2.9l1.44-2.68l-1.51-2.65v-7.22l0.43,0.12c0.06,0.01,0.11,0.02,0.17,0.04l0.3,0.07c0.24,0.04,0.48,0.09,0.73,0.11
		c0.04,0.01,0.23,0.02,0.23,0.02c0.17,0.01,0.35,0.03,0.52,0.03l0.1,0h0.12l0.09,0c0.26,0,0.53-0.02,0.79-0.05
		c0.07,0,0.26-0.03,0.26-0.03c0.26-0.04,0.51-0.09,0.77-0.15l0.09-0.02c0.19-0.05,0.39-0.11,0.58-0.17L94.88,54V71.06z M95.17,52.59
		c-1.01,0.55-2.17,0.85-3.33,0.85c-1.02,0-2-0.21-2.91-0.62c-2.51-1.14-4.13-3.65-4.13-6.4c0-3.88,3.16-7.03,7.04-7.03
		c3.87,0,7.02,3.15,7.02,7.03C98.86,49,97.44,51.37,95.17,52.59z"/>
	<path class="st2" d="M94.88,54v17.06l-2.84,3.2l-2.61-2.58l1.35-2.06l-1.44-2.9l1.44-2.68l-1.51-2.65v-7.22l0.43,0.12
		c0.06,0.01,0.11,0.02,0.17,0.04l0.3,0.07c0.24,0.05,0.48,0.09,0.73,0.11c0.04,0.01,0.23,0.02,0.23,0.02
		c0.17,0.01,0.35,0.03,0.52,0.03l0.1,0h0.12l0.09,0c0.26,0,0.53-0.02,0.79-0.05c0.07,0,0.26-0.03,0.26-0.03
		c0.26-0.04,0.51-0.09,0.77-0.15l0.09-0.02c0.19-0.05,0.39-0.11,0.58-0.16L94.88,54z"/>
	<path class="st2" d="M91.84,39.38c-3.88,0-7.04,3.15-7.04,7.03c0,2.75,1.62,5.27,4.13,6.4v0.01c0.91,0.41,1.88,0.62,2.91,0.62
		c1.16,0,2.32-0.29,3.33-0.84c2.28-1.23,3.69-3.59,3.69-6.18C98.86,42.54,95.71,39.38,91.84,39.38z M91.83,45.78
		c-1.09,0-1.99-0.89-1.99-1.99c0-1.09,0.9-1.99,1.99-1.99c1.1,0,1.99,0.9,1.99,1.99C93.82,44.89,92.93,45.78,91.83,45.78z"/>
	<path class="st1" d="M91.83,42.02c-1.04,0-1.89,0.85-1.89,1.89c0,1.05,0.85,1.89,1.89,1.89c1.05,0,1.89-0.85,1.89-1.89
		C93.72,42.88,92.88,42.02,91.83,42.02z M91.83,44.67c-0.42,0-0.75-0.33-0.75-0.75s0.33-0.75,0.75-0.75c0.42,0,0.76,0.33,0.76,0.75
		S92.25,44.67,91.83,44.67z"/>
	<path class="st1" d="M84.32,43.01c-0.1,0.3-0.19,0.61-0.26,0.92c-0.06,0.24-0.11,0.49-0.15,0.73c-0.01-0.01-0.02-0.02-0.04-0.04
		c-4.23-4.36-10.07-6.86-16.17-6.86h-7.6v34.95h10.46v1.47H58.63V36.3h9.07C73.94,36.3,79.83,38.68,84.32,43.01z"/>
	<path class="st1" d="M84.4,43.04c-0.1,0.3-0.27,0.58-0.34,0.88c-0.06,0.24-0.11,0.49-0.15,0.73c-0.01-0.01-0.02-0.02-0.04-0.04
		c-4.23-4.36-10.07-6.86-16.17-6.86h-7.6v34.95h10.46v1.47H58.63V36.3h9.07C73.94,36.3,79.91,38.71,84.4,43.04z"/>
	<polygon points="89.41,74.19 80.17,74.19 80.17,72.72 87.92,72.72 	"/>
	<polygon class="st1" points="90.64,74.19 80.17,74.19 80.17,72.72 89.15,72.72 	"/>
	<path class="st1" d="M71.32,41.84h-2.98v14.99h17.23v-0.75C85.56,48.23,79.17,41.84,71.32,41.84z M69.8,55.35V43.32h1.52
		c6.58,0,12.17,5.13,12.73,11.67l0.03,0.36H69.8z"/>
	<polygon class="st1" points="56.92,59.13 56.92,74.19 45.72,74.19 45.72,72.72 55.45,72.72 55.45,60.6 1.47,60.6 1.47,72.72 
		9.47,72.72 9.47,74.19 0,74.19 0,59.13 	"/>
	<polygon class="st1" points="56.92,59.13 56.92,74.19 45.72,74.19 45.72,72.72 55.45,72.72 55.45,60.6 1.47,60.6 1.47,72.72 
		9.47,72.72 9.47,74.19 0,74.19 0,59.13 	"/>
	<rect x="19.08" y="72.72" width="16.2" height="1.47"/>
	<rect x="19.08" y="72.72" class="st1" width="16.2" height="1.47"/>
	<path class="st1" d="M28.46,20.98l-11.31,5.96v-4.78h-7.6v8.8l-7.62,4.02l0.69,1.3l4.52-2.39l1.47-0.78l19.84-10.47l20,10.56
		l1.47,0.78l4.37,2.31l0.68-1.3L28.46,20.98z M15.68,27.72l-4.67,2.47v-6.56h4.67V27.72z"/>
	<path class="st1" d="M28.46,20.98l-11.31,5.96v-4.78h-7.6v8.8l-7.62,4.02l0.69,1.3l4.52-2.39l1.47-0.78l19.84-10.47l20,10.56
		l1.47,0.78l4.37,2.31l0.68-1.3L28.46,20.98z M15.68,27.72l-4.67,2.47v-6.56h4.67V27.72z"/>
	<polygon class="st2" points="15.68,23.63 15.68,27.72 11.01,30.19 11.01,23.63 	"/>
	<polygon class="st1" points="49.93,32.62 49.93,56.82 7.14,56.82 7.14,32.82 8.61,32.82 8.61,55.35 48.46,55.35 48.46,32.62 	"/>
	<polygon class="st2" points="48.46,33.2 48.46,55.35 8.61,55.35 8.61,33.12 28.46,22.64 	"/>
	<polygon class="st1" points="49.93,32.62 49.93,56.82 7.14,56.82 7.14,32.82 8.61,32.82 8.61,55.35 48.46,55.35 48.46,32.62 	"/>
	<path d="M20,72.72c-0.36-2.72-2.69-4.83-5.52-4.83c-2.82,0-5.16,2.11-5.52,4.83c-0.03,0.24-0.05,0.49-0.05,0.73
		c0,0.25,0.02,0.49,0.05,0.73c0.36,2.73,2.7,4.83,5.52,4.83c2.82,0,5.16-2.11,5.52-4.83c0.03-0.24,0.05-0.49,0.05-0.73
		C20.05,73.21,20.04,72.96,20,72.72z M14.49,77.02c-1.96,0-3.57-1.6-3.57-3.56c0-1.96,1.6-3.56,3.57-3.56c1.97,0,3.56,1.6,3.56,3.56
		C18.05,75.42,16.45,77.02,14.49,77.02z"/>
	<path class="st1" d="M20,72.72c-0.36-2.72-2.69-4.83-5.52-4.83c-2.82,0-5.16,2.11-5.52,4.83c-0.03,0.24-0.05,0.49-0.05,0.73
		c0,0.25,0.02,0.49,0.05,0.73c0.36,2.73,2.7,4.83,5.52,4.83c2.82,0,5.16-2.11,5.52-4.83c0.03-0.24,0.05-0.49,0.05-0.73
		C20.05,73.21,20.04,72.96,20,72.72z M14.49,77.02c-1.96,0-3.57-1.6-3.57-3.56c0-1.96,1.6-3.56,3.57-3.56c1.97,0,3.56,1.6,3.56,3.56
		C18.05,75.42,16.45,77.02,14.49,77.02z"/>
	<path class="st0" d="M18.05,73.45c0,1.97-1.6,3.56-3.56,3.56c-1.96,0-3.57-1.6-3.57-3.56c0-1.96,1.6-3.56,3.57-3.56
		C16.45,69.89,18.05,71.49,18.05,73.45z"/>
	<path d="M45.81,72.72c-0.36-2.72-2.69-4.83-5.51-4.83c-2.82,0-5.17,2.11-5.53,4.83c-0.03,0.24-0.05,0.49-0.05,0.73
		c0,0.25,0.02,0.49,0.05,0.73c0.36,2.73,2.7,4.83,5.53,4.83c2.82,0,5.15-2.11,5.51-4.83c0.03-0.24,0.05-0.49,0.05-0.73
		C45.86,73.21,45.84,72.96,45.81,72.72z M40.3,77.02c-1.97,0-3.57-1.6-3.57-3.56c0-1.96,1.6-3.56,3.57-3.56
		c1.96,0,3.56,1.6,3.56,3.56C43.86,75.42,42.26,77.02,40.3,77.02z"/>
	<path class="st1" d="M45.81,72.72c-0.36-2.72-2.69-4.83-5.51-4.83c-2.82,0-5.17,2.11-5.53,4.83c-0.03,0.24-0.05,0.49-0.05,0.73
		c0,0.25,0.02,0.49,0.05,0.73c0.36,2.73,2.7,4.83,5.53,4.83c2.82,0,5.15-2.11,5.51-4.83c0.03-0.24,0.05-0.49,0.05-0.73
		C45.86,73.21,45.84,72.96,45.81,72.72z M40.3,77.02c-1.97,0-3.57-1.6-3.57-3.56c0-1.96,1.6-3.56,3.57-3.56
		c1.96,0,3.56,1.6,3.56,3.56C43.86,75.42,42.26,77.02,40.3,77.02z"/>
	<path class="st0" d="M43.86,73.45c0,1.97-1.6,3.56-3.56,3.56c-1.97,0-3.57-1.6-3.57-3.56c0-1.96,1.6-3.56,3.57-3.56
		C42.26,69.89,43.86,71.49,43.86,73.45z"/>
	<path class="st2" d="M55.45,60.6v12.12h-9.64c-0.36-2.72-2.69-4.83-5.51-4.83c-2.82,0-5.17,2.11-5.53,4.83H20
		c-0.36-2.72-2.69-4.83-5.52-4.83c-2.82,0-5.16,2.11-5.52,4.83h-7.5V60.6H55.45z"/>
	<path d="M80.68,72.72c-0.36-2.72-2.69-4.83-5.51-4.83c-2.82,0-5.16,2.11-5.52,4.83c-0.03,0.24-0.05,0.49-0.05,0.73
		c0,0.25,0.02,0.49,0.05,0.73c0.36,2.73,2.69,4.83,5.52,4.83c2.82,0,5.15-2.11,5.51-4.83c0.03-0.24,0.05-0.49,0.05-0.73
		C80.72,73.21,80.71,72.96,80.68,72.72z M75.17,77.02c-1.96,0-3.56-1.6-3.56-3.56c0-1.96,1.6-3.56,3.56-3.56
		c1.96,0,3.55,1.6,3.55,3.56C78.72,75.42,77.12,77.02,75.17,77.02z"/>
	<path class="st1" d="M80.68,72.72c-0.36-2.72-2.69-4.83-5.51-4.83c-2.82,0-5.16,2.11-5.52,4.83c-0.03,0.24-0.05,0.49-0.05,0.73
		c0,0.25,0.02,0.49,0.05,0.73c0.36,2.73,2.69,4.83,5.52,4.83c2.82,0,5.15-2.11,5.51-4.83c0.03-0.24,0.05-0.49,0.05-0.73
		C80.72,73.21,80.71,72.96,80.68,72.72z M75.17,77.02c-1.96,0-3.56-1.6-3.56-3.56c0-1.96,1.6-3.56,3.56-3.56
		c1.96,0,3.55,1.6,3.55,3.56C78.72,75.42,77.12,77.02,75.17,77.02z"/>
	<path class="st2" d="M88.06,66.7l1.41-2.64l-1.34-2.36v-8l-0.18-0.09c-2.65-1.43-4.29-4.18-4.29-7.19c0-0.61,0.07-1.21,0.2-1.79
		c-4.23-4.36-10.07-6.86-16.17-6.86h-7.6v34.95h9.55c0.36-2.72,2.69-4.83,5.52-4.83c2.82,0,5.15,2.11,5.51,4.83h8.19l-0.89-0.88
		l1.5-2.3L88.06,66.7z M85.56,56.83H68.34V41.84h2.98c7.85,0,14.24,6.39,14.24,14.24V56.83z"/>
	<path class="st2" d="M84.07,55.35H69.8V43.32h1.52c6.58,0,12.17,5.13,12.73,11.67L84.07,55.35z"/>
	<path class="st0" d="M78.72,73.45c0,1.97-1.6,3.56-3.55,3.56c-1.96,0-3.56-1.6-3.56-3.56c0-1.96,1.6-3.56,3.56-3.56
		C77.12,69.89,78.72,71.49,78.72,73.45z"/>
	<rect x="11.68" y="36.3" class="st0" width="10.64" height="9.06"/>
	<rect x="16.27" y="36.12" class="st2" width="1.47" height="9.42"/>
	
		<rect x="16.27" y="34.55" transform="matrix(-1.836970e-16 1 -1 -1.836970e-16 57.8302 23.8226)" class="st2" width="1.47" height="12.55"/>
</g>
</svg>
