<?xml version="1.0" encoding="utf-8"?>
<!-- Generator: Adobe Illustrator 23.0.0, SVG Export Plug-In . SVG Version: 6.00 Build 0)  -->
<svg version="1.1" id="Layer_1" xmlns="http://www.w3.org/2000/svg" xmlns:xlink="http://www.w3.org/1999/xlink" x="0px" y="0px"
	 viewBox="0 0 1200 1200" style="enable-background:new 0 0 1200 1200;" xml:space="preserve">
<style type="text/css">
	.st0{fill:#333333;}
	.st1{fill:#FF6600;}
	.st2{fill:none;stroke:#333333;stroke-width:11.7309;stroke-miterlimit:10;}
</style>
<g>
	<path class="st0" d="M-1383.22-874.79l-0.05,804.21h22.01l0.05-456.28v-22.01l0.05-303.92h550.28v991.56h-550.37V88.46h-22.01
		v72.32h594.38V-874.79H-1383.22z"/>
	<path class="st1" d="M-1361.17-852.78l-0.05,303.92h550.33v-303.92H-1361.17z M-1269.36-592.03h-22.01v-191.56h22.01V-592.03z"/>
	<g>
		<polygon class="st0" points="-582,-462.33 -582,103.23 -793.46,103.23 -793.46,81.17 -604.01,81.17 -604.01,-440.33 
			-793.46,-440.33 -793.46,-462.33 		"/>
	</g>
	<path class="st1" d="M-684.04-121.97c0,60.36-49.1,109.93-109.51,110.5v-220.99C-733.14-231.9-684.04-182.33-684.04-121.97z"/>
	<path class="st0" d="M-662.03-121.97c0,70.88-56.49,129.32-126.85,132.36c-1.5,0.09-2.99,0.14-4.49,0.14l-0.19-22.01
		c1.54,0,3.13-0.05,4.67-0.14c58.26-2.99,104.84-51.53,104.84-110.36c0-58.82-46.58-107.36-104.84-110.36
		c-1.54-0.09-3.13-0.14-4.67-0.14l0.19-22.05c1.5,0,2.99,0.05,4.49,0.14C-718.52-251.34-662.03-192.89-662.03-121.97z"/>
	<path class="st1" d="M-604.01-309.04V81.17h-184.88V10.39c70.36-3.04,126.85-61.49,126.85-132.36
		c0-70.92-56.49-129.37-126.85-132.41v-54.66H-604.01z"/>
	<rect x="-793.46" y="-331.09" class="st0" width="200.43" height="22.05"/>
	<g>
		<path class="st0" d="M-673.01-404.77c-16.21,0-29.39,13.18-29.39,29.39c0,16.21,13.18,29.39,29.39,29.39
			c16.21,0,29.39-13.18,29.39-29.39C-643.63-391.6-656.8-404.77-673.01-404.77z M-673.01-368c-4.06,0-7.38-3.32-7.38-7.38
			c0-4.06,3.32-7.34,7.38-7.34c4.06,0,7.34,3.27,7.34,7.34C-665.68-371.32-668.95-368-673.01-368z"/>
	</g>
	<path class="st0" d="M-738.56-404.77c-16.21,0-29.39,13.18-29.39,29.39c0,16.21,13.18,29.39,29.39,29.39
		c16.17,0,29.39-13.18,29.39-29.39C-709.17-391.6-722.4-404.77-738.56-404.77z M-738.56-368c-4.06,0-7.38-3.32-7.38-7.38
		c0-4.06,3.32-7.34,7.38-7.34s7.34,3.27,7.34,7.34C-731.23-371.32-734.5-368-738.56-368z"/>
	<path class="st1" d="M-788.88-440.33v109.23h184.88v-109.23H-788.88z M-738.56-346c-16.21,0-29.39-13.18-29.39-29.39
		c0-16.21,13.18-29.39,29.39-29.39c16.17,0,29.39,13.18,29.39,29.39C-709.17-359.17-722.4-346-738.56-346z M-673.01-346
		c-16.21,0-29.39-13.18-29.39-29.39c0-16.21,13.18-29.39,29.39-29.39c16.21,0,29.39,13.18,29.39,29.39
		C-643.63-359.17-656.8-346-673.01-346z"/>
	<path class="st1" d="M-731.23-375.38c0,4.06-3.27,7.38-7.34,7.38s-7.38-3.32-7.38-7.38c0-4.06,3.32-7.34,7.38-7.34
		S-731.23-379.45-731.23-375.38z"/>
	<path class="st1" d="M-665.68-375.38c0,4.06-3.27,7.38-7.34,7.38c-4.06,0-7.38-3.32-7.38-7.38c0-4.06,3.32-7.34,7.38-7.34
		C-668.95-382.72-665.68-379.45-665.68-375.38z"/>
	<g>
		<rect x="-1372.19" y="-548.86" class="st0" width="572.29" height="22.01"/>
	</g>
	<g>
		<rect x="-1291.37" y="-783.59" class="st0" width="22.01" height="191.56"/>
	</g>
	<g>
		<rect x="-1291.37" y="-479.71" class="st0" width="22.01" height="190.25"/>
	</g>
	<path class="st0" d="M-1326.31-70.58h-91.81L-1464,8.94l45.88,79.52h91.81l45.97-79.52L-1326.31-70.58z M-1361.26,52.53
		c-3.5,0.89-7.19,1.36-10.98,1.36c-3.78,0-7.48-0.47-11.03-1.36c-19.44-4.95-33.87-22.61-33.87-43.59
		c0-21.02,14.44-38.69,33.87-43.64c3.55-0.89,7.24-1.35,11.03-1.35c3.78,0,7.48,0.47,10.98,1.35c19.58,4.91,33.97,22.57,33.97,43.64
		C-1327.29,29.97-1341.68,47.67-1361.26,52.53z"/>
	<path class="st1" d="M-1327.29,8.94c0,21.02-14.39,38.73-33.97,43.59c-3.5,0.89-7.19,1.36-10.98,1.36c-3.78,0-7.48-0.47-11.03-1.36
		c-19.44-4.95-33.87-22.61-33.87-43.59c0-21.02,14.44-38.69,33.87-43.64c3.55-0.89,7.24-1.35,11.03-1.35
		c3.78,0,7.48,0.47,10.98,1.35C-1341.68-29.79-1327.29-12.13-1327.29,8.94z"/>
	<path class="st1" d="M-1361.21-526.85l-0.05,456.28h34.95l45.97,79.52l-45.97,79.52h-34.95v50.32h550.37v-665.63H-1361.21z
		 M-1269.36-289.46h-22.01v-190.25h22.01V-289.46z"/>
</g>
<g>
	<g>
		<polygon class="st0" points="-760.13,286.37 -760.13,562.35 -782.28,562.35 -782.28,308.52 -1495.8,308.52 -1495.8,756.16 
			-1000.92,756.16 -1000.92,778.32 -1518,778.32 -1518,286.37 		"/>
	</g>
	<path class="st0" d="M-1206.62,789.69v86.63h135.11v-86.63H-1206.62z M-1093.67,854.17h-90.79v-42.28h90.79V854.17z"/>
	<rect x="-1184.46" y="811.89" class="st1" width="90.79" height="42.28"/>
	<g>
		<path class="st0" d="M-1000.92,562.35v314.82h496.53V562.35H-1000.92z M-526.55,855.02h-452.22V584.55h452.22V855.02z"/>
		<rect x="-978.77" y="584.55" class="st1" width="452.22" height="270.47"/>
	</g>
	<g>
		<polygon class="st0" points="-474,885.92 -474,913.63 -1031.31,913.63 -1031.31,910.83 -1269.82,910.83 -1269.82,888.67 
			-1031.31,888.67 -1031.31,885.92 		"/>
	</g>
	<path class="st0" d="M-1234.42,472.66c0.34,0.55,0.76,1.02,1.23,1.49l15.7,15.71L-1234.42,472.66z M-1233.19,458.65
		c-0.3,0.3-0.59,0.64-0.85,0.98l19.74-19.86L-1233.19,458.65z"/>
	<path class="st1" d="M-1495.8,308.52v447.63h494.88V562.35h218.64V308.52H-1495.8z M-1023,556.66h-33.11
		c-1.83,6.32-4.37,12.44-7.6,18.21l23.47,23.43l-26.66,26.66c-3.74,3.74-10.57,4.92-16.72-1.27l-14.47-14.43
		c-5.77,3.23-11.84,5.73-18.17,7.56v33.15h-48.64v-33.15c-6.32-1.83-12.44-4.33-18.21-7.56l-7.22,7.22l-8.49,8.49l-7.73,7.77
		l-26.66-26.66c-2.5-2.5-3.57-5.94-2.93-9.42c0.51-2.59,1.91-5.05,4.2-7.34l14.43-14.43c-3.23-5.77-5.73-11.88-7.56-18.21h-33.15
		v-48.64h33.15c1.83-6.32,4.33-12.39,7.56-18.17l-15.7-15.71c-0.47-0.47-0.89-0.93-1.23-1.49l-0.13-0.17l-6.11-6.2l6.62-6.66
		c0.25-0.34,0.55-0.68,0.85-0.98l18.89-18.89c1.99-1.99,4.63-2.89,7.43-3.1c3.31,0,6.45,1.44,9.3,4.33l14.47,14.43
		c5.77-3.18,11.88-5.73,18.21-7.56v-33.11h48.64v33.11c6.32,1.83,12.39,4.37,18.17,7.56l23.47-23.43l26.61,26.66
		c1.99,2,3.1,4.63,3.1,7.43c0,3.27-1.44,6.41-4.33,9.3l-14.47,14.47c3.23,5.77,5.77,11.84,7.6,18.17h33.11V556.66z"/>
	<path class="st0" d="M-1023,556.66v-48.64h-33.11c-1.83-6.32-4.37-12.39-7.6-18.17l14.47-14.47c2.89-2.89,4.33-6.03,4.33-9.3
		c0-2.8-1.1-5.43-3.1-7.43l-26.61-26.66l-23.47,23.43c-5.77-3.18-11.84-5.73-18.17-7.56v-33.11h-48.64v33.11
		c-6.32,1.83-12.44,4.37-18.21,7.56l-14.47-14.43c-2.84-2.89-5.98-4.33-9.3-4.33c-2.8,0.21-5.43,1.1-7.43,3.1l-19.74,19.86
		l-6.62,6.66l6.11,6.2l0.13,0.17l16.94,17.19c-3.23,5.77-5.73,11.84-7.56,18.17h-33.15v48.64h33.15c1.83,6.32,4.33,12.44,7.56,18.21
		l-14.43,14.43c-2.29,2.29-3.69,4.75-4.2,7.34c-0.64,3.48,0.42,6.92,2.93,9.42l26.66,26.66l7.73-7.77l8.49-8.49l7.22-7.22
		c5.77,3.23,11.88,5.73,18.21,7.56v33.15h48.64v-33.15c6.32-1.83,12.39-4.33,18.17-7.56l14.47,14.43c6.15,6.2,12.99,5.01,16.72,1.27
		l26.66-26.66l-23.47-23.43c3.23-5.77,5.77-11.88,7.6-18.21H-1023z M-1063.74,598.3l-10.87,10.87l-14.77-14.73
		c-3.65-3.65-9.25-4.29-13.67-1.57c-9.04,5.69-19.19,9.17-29.84,10.31v30.14h-15.41v-30.14c-13.46-1.44-26.1-6.66-36.89-15.28
		c-0.04,0-0.08,0-0.08,0l-21.27,21.27l-10.91-10.87c0,0,20.8-20.76,21.31-21.31c0,0,0,0,0-0.04c-8.62-10.78-13.84-23.43-15.28-36.93
		h-30.14v-15.37h30.14c1.44-13.5,6.66-26.15,15.24-36.93c0.04,0,0.04-0.04,0-0.08l-21.22-21.27l10.87-10.87
		c0,0,20.71,20.76,21.31,21.31c0,0,0,0,0.04-0.04c10.74-8.57,23.43-13.84,36.89-15.28v-30.14h15.41v30.14
		c13.5,1.49,26.19,6.71,36.89,15.28c0.04,0.04,0.08,0.04,0.08,0l21.31-21.27l10.87,10.87l-14.77,14.77
		c-3.61,3.65-4.24,9.21-1.53,13.63c5.65,9.13,9.17,19.23,10.31,29.88h30.09v15.37h-30.09c-1.44,13.5-6.66,26.1-15.28,36.93
		c-0.04,0.04-0.04,0.08,0,0.08L-1063.74,598.3z"/>
	<path class="st1" d="M-1069.73,540.02h30.09v-15.37h-30.09c-1.15-10.65-4.67-20.76-10.31-29.88c-2.72-4.41-2.08-9.97,1.53-13.63
		l14.77-14.77l-10.87-10.87l-21.31,21.27c0,0.04-0.04,0.04-0.08,0c-10.7-8.57-23.39-13.79-36.89-15.28v-30.14h-15.41v30.14
		c-13.46,1.44-26.15,6.71-36.89,15.28c-0.04,0.04-0.04,0.04-0.04,0.04c-0.59-0.55-21.31-21.31-21.31-21.31l-10.87,10.87l21.22,21.27
		c0.04,0.04,0.04,0.08,0,0.08c-8.57,10.78-13.8,23.43-15.24,36.93h-30.14v15.37h30.14c1.44,13.5,6.66,26.15,15.28,36.93
		c0,0.04,0,0.04,0,0.04c-0.51,0.55-21.31,21.31-21.31,21.31l10.91,10.87l21.27-21.27c0,0,0.04,0,0.08,0
		c10.78,8.62,23.43,13.84,36.89,15.28v30.14h15.41v-30.14c10.65-1.15,20.8-4.63,29.84-10.31c4.41-2.72,10.02-2.08,13.67,1.57
		l14.77,14.73l10.87-10.87l-21.27-21.27c-0.04,0-0.04-0.04,0-0.08C-1076.39,566.13-1071.17,553.52-1069.73,540.02z M-1107.34,588.84
		c-60.32,30.94-120.67-29.42-89.73-89.73c5.14-9.93,13.29-18.12,23.26-23.22c60.27-30.99,120.67,29.42,89.69,89.69
		C-1089.21,575.55-1097.4,583.7-1107.34,588.84z"/>
	<g>
		<path class="st0" d="M-1084.12,565.58c-5.09,9.97-13.29,18.12-23.22,23.26c-60.32,30.94-120.67-29.42-89.73-89.73
			c5.14-9.93,13.29-18.12,23.26-23.22C-1113.53,444.9-1053.13,505.3-1084.12,565.58z"/>
	</g>
	<circle class="st1" cx="-1140.58" cy="532.34" r="47.73"/>
</g>
<g>
	<path class="st1" d="M-590.4,1616.09h107.15c-5.76,205.68-172.03,371.9-377.66,377.66V1886.6h-22.18v107.15
		c-205.68-5.76-371.9-171.98-377.66-377.66h107.15v-22.18h-107.15c5.76-205.68,171.98-371.9,377.66-377.66v107.15h22.18v-107.15
		c205.63,5.76,371.9,171.98,377.66,377.66H-590.4V1616.09z"/>
	<g>
		<g>
			<path class="st0" d="M-746.26,1574.5c-1.26-5.47-2.86-10.85-4.74-16.17c-0.44-1.5-0.97-2.95-1.55-4.45
				c-1.98-5.18-5.81-9.3-10.89-11.52c-5.04-2.23-10.6-2.32-15.74-0.29c-0.19,0.05-0.34,0.15-0.53,0.19
				c-17.58,18.69-46.97,31.42-80.62,32.97c13.17-0.39,26.15-1.69,38.98-3.97c5.52-1.02,10.94-2.18,16.37-3.49
				c1.79-0.48,3.58-0.92,5.37-1.4c1.26-0.34,2.52-0.68,3.73-1.07c1.02-0.24,1.99-0.53,2.95-0.87c1.89-0.53,3.73-1.11,5.57-1.74
				c2.42-0.77,4.79-1.6,7.17-2.47c2.37-0.82,4.74-1.74,7.12-2.66c1.31-0.53,2.37-0.19,2.91,0.05c0.53,0.24,1.55,0.82,2.03,2.18
				c6.34,16.75,9.59,34.43,9.59,52.53c0,66.33-42.9,123.37-105.46,142.11c-2.76,0.87-5.52,1.6-8.33,2.28
				c-2.81-0.68-5.57-1.4-8.33-2.28c-62.56-18.74-105.41-75.78-105.41-142.11c0-19.46,3.68-38.4,10.99-56.26
				c0.58-1.36,1.6-1.94,2.18-2.18c0.34-0.15,0.82-0.24,1.36-0.24c0.44,0,0.97,0.05,1.5,0.29c30.79,13.51,63.57,20.72,97.42,21.35
				c-34.28-1.21-64.3-14.09-82.12-33.02c-2.9-1.11-5.76-2.32-8.62-3.58c-5.08-2.23-10.7-2.32-15.78-0.24
				c-5.18,2.08-9.2,6.1-11.33,11.33c-1.16,2.81-2.23,5.62-3.2,8.47c-1.84,5.33-3.39,10.7-4.65,16.17c-3,12.35-4.45,25.03-4.45,37.91
				c0,1.94,0.05,3.82,0.1,5.76c0.19,5.62,0.68,11.18,1.4,16.66c2.03,15.4,6.2,30.16,12.25,43.96c2.28,5.33,4.84,10.51,7.7,15.49
				c22.27,39.27,60.38,68.61,107.15,79.21l1.84,0.39l1.84-0.39c46.87-10.6,84.97-39.99,107.2-79.31c2.86-4.99,5.42-10.17,7.75-15.49
				c5.96-13.75,10.12-28.52,12.15-43.87c0.73-5.47,1.21-11.04,1.4-16.66c0.05-1.94,0.1-3.83,0.1-5.76
				C-741.9,1599.48-743.35,1586.84-746.26,1574.5z"/>
			<path class="st0" d="M-758.56,1612.31c0,66.33-42.9,123.37-105.46,142.11v-65.22h-16.66v65.22
				c-62.56-18.74-105.41-75.78-105.41-142.11c0-19.46,3.68-38.4,10.99-56.26c0.58-1.36,1.6-1.94,2.18-2.18
				c0.34-0.15,0.82-0.24,1.36-0.24c0.44,0,0.97,0.05,1.5,0.29c30.79,13.51,63.57,20.72,97.42,21.35c1.79,0.05,3.58,0.1,5.37,0.1
				h0.05c2.32,0,4.6-0.05,6.88-0.15c13.17-0.39,26.15-1.69,38.98-3.97c5.52-1.02,10.94-2.18,16.37-3.49
				c1.79-0.48,3.58-0.92,5.37-1.4c1.26-0.34,2.52-0.68,3.73-1.07c1.02-0.24,1.99-0.53,2.95-0.87c1.89-0.53,3.73-1.11,5.57-1.74
				c2.42-0.77,4.79-1.6,7.17-2.47c2.37-0.82,4.74-1.74,7.12-2.66c1.31-0.53,2.37-0.19,2.91,0.05c0.53,0.24,1.55,0.82,2.03,2.18
				C-761.8,1576.53-758.56,1594.2-758.56,1612.31z"/>
		</g>
		<g>
			<path class="st0" d="M-778.99,1501.67c0,31.47-39.56,57.04-88.22,57.04h-0.19c-48.56-0.05-88.07-25.61-88.07-57.04
				s39.61-57.04,88.22-57.04C-818.59,1444.64-778.99,1470.25-778.99,1501.67z"/>
		</g>
		<g>
			<g>
				<path class="st0" d="M-758.17,1575.38v-16.66c15.62,0,28.07-5.17,38.07-15.79c29.39-31.24,25.7-97.66,25.66-98.33l16.63-1.03
					c0.19,3.02,4.2,74.22-30.12,110.75C-721.08,1568.29-737.98,1575.38-758.17,1575.38z"/>
			</g>
			<g>
				<rect x="-754.99" y="1618.09" class="st0" width="82.88" height="16.66"/>
			</g>
			<g>
				<path class="st0" d="M-677.6,1773.71l-16.66-0.05c0.18-64.21-55.24-79.71-76.61-80.27l0.43-16.66
					C-744.54,1677.41-677.38,1696.14-677.6,1773.71z"/>
			</g>
		</g>
		<g>
			<g>
				<path class="st0" d="M-985.83,1575.38c-20.2,0-37.1-7.09-50.23-21.07c-34.32-36.52-30.31-107.73-30.12-110.75l16.63,1.03
					c-0.04,0.67-3.73,67.09,25.66,98.33c10,10.62,22.45,15.79,38.07,15.79V1575.38z"/>
			</g>
			<g>
				<rect x="-1071.9" y="1618.09" class="st0" width="82.88" height="16.66"/>
			</g>
			<g>
				<path class="st0" d="M-1066.4,1773.71c-0.22-77.57,66.95-96.3,92.85-96.97l0.43,16.66c-21.37,0.55-76.8,16.05-76.62,80.27
					L-1066.4,1773.71z"/>
			</g>
		</g>
		<g>
			<path class="st0" d="M-864.01,1754.42v10.85h-16.66v-10.85c2.76,0.87,5.52,1.6,8.33,2.28
				C-869.53,1756.02-866.77,1755.29-864.01,1754.42z"/>
		</g>
	</g>
	<path class="st0" d="M-460.98,1593.91c-5.81-217.88-182.05-394.13-399.94-399.94c-3.68-0.1-7.36-0.15-11.09-0.15
		s-7.41,0.05-11.09,0.15c-217.93,5.81-394.13,182.05-399.94,399.94c-0.1,3.68-0.15,7.36-0.15,11.09c0,3.73,0.05,7.41,0.15,11.09
		c5.81,217.88,182.01,394.13,399.94,399.94c3.68,0.1,7.36,0.15,11.09,0.15s7.41-0.05,11.09-0.15
		c217.88-5.81,394.13-182.05,399.94-399.94c0.1-3.68,0.15-7.36,0.15-11.09C-460.83,1601.27-460.88,1597.59-460.98,1593.91z
		 M-860.91,1993.75c-3.68,0.15-7.36,0.19-11.09,0.19s-7.41-0.05-11.09-0.19c-205.68-5.76-371.9-171.98-377.66-377.66
		c-0.15-3.68-0.19-7.36-0.19-11.09c0-3.73,0.05-7.41,0.19-11.09c5.76-205.68,171.98-371.9,377.66-377.66
		c3.68-0.15,7.36-0.19,11.09-0.19s7.41,0.05,11.09,0.19c205.63,5.76,371.9,171.98,377.66,377.66c0.15,3.68,0.19,7.36,0.19,11.09
		c0,3.73-0.05,7.41-0.19,11.09C-489.01,1821.77-655.28,1987.99-860.91,1993.75z"/>
	<g>
		<rect x="-883.09" y="1083" class="st0" width="22.18" height="240.4"/>
	</g>
	<g>
		<rect x="-1394" y="1593.91" class="st0" width="240.4" height="22.18"/>
	</g>
	<g>
		<rect x="-883.09" y="1886.6" class="st0" width="22.18" height="240.4"/>
	</g>
	<g>
		<rect x="-590.4" y="1593.91" class="st0" width="240.4" height="22.18"/>
	</g>
</g>
<g>
	<path class="st0" d="M-763.32,2450.85v94.72l121.01,98.79v-193.51H-763.32z M-744.8,2536.77v-67.4h83.98v135.96L-744.8,2536.77z"/>
	<polygon class="st1" points="-660.82,2469.37 -660.82,2605.33 -744.8,2536.77 -744.8,2469.37 	"/>
	<polygon class="st1" points="-703.88,2793.19 -703.88,2895.55 -787.95,2895.55 -787.95,2947.86 -880.07,2947.86 -880.07,2793.19 	
		"/>
	<polygon class="st1" points="-703.88,3057.57 -703.88,3121.04 -880.07,3121.04 -880.07,2966.37 -787.95,2966.37 -787.95,3057.57 	
		"/>
	<g>
		<polygon class="st0" points="-518.66,2721.39 -530.37,2735.74 -601.34,2677.78 -619.85,2662.69 -642.31,2644.36 -763.32,2545.57 
			-948.81,2394.1 -1283.01,2664.31 -1301.52,2679.31 -1371.33,2735.74 -1383,2721.34 -948.77,2370.26 -763.32,2521.63 
			-744.8,2536.77 -660.82,2605.33 -642.31,2620.42 		"/>
	</g>
	<g>
		<path class="st0" d="M-1218.38,2774.67v234.75h234.75v-234.75H-1218.38z M-1002.14,2990.91h-197.72v-197.72h197.72V2990.91z"/>
	</g>
	<g>
		<polygon class="st0" points="-685.36,2774.67 -685.36,2899.76 -703.88,2899.76 -703.88,2793.19 -880.07,2793.19 -880.07,3121.04 
			-703.88,3121.04 -703.88,3049.56 -685.36,3049.56 -685.36,3139.56 -898.59,3139.56 -898.59,2774.67 		"/>
	</g>
	<g>
		<rect x="-619.85" y="2658.29" class="st0" width="18.52" height="241.47"/>
	</g>
	<g>
		<polygon class="st0" points="-601.34,3049.56 -601.34,3139.56 -1301.52,3139.56 -1301.52,2659.91 -1283.01,2659.91 
			-1283.01,3121.04 -619.85,3121.04 -619.85,3049.56 		"/>
	</g>
	<path class="st0" d="M-787.95,2967.35v90.23h383.4v-90.23H-787.95z M-423.06,3039.05h-346.37v-53.19h346.37V3039.05z"/>
	<rect x="-685.36" y="3057.57" class="st1" width="65.51" height="63.47"/>
	<rect x="-769.43" y="2985.86" class="st1" width="346.37" height="53.19"/>
	<path class="st0" d="M-787.95,2895.55v90.32h383.4v-90.32H-787.95z M-769.43,2967.35v-53.28h346.37v53.28H-769.43z"/>
	<rect x="-769.43" y="2914.06" class="st1" width="346.37" height="53.28"/>
	<path class="st1" d="M-642.31,2644.36l-121.01-98.79l-185.5-151.47l-334.19,270.21v456.73h384.42v-346.37h213.23v120.87h65.51
		v-232.86L-642.31,2644.36z M-983.63,3009.43h-234.75v-234.75h234.75V3009.43z"/>
	<rect x="-1091.72" y="2901.29" class="st1" width="89.58" height="89.62"/>
	<rect x="-1199.86" y="2901.29" class="st1" width="89.62" height="89.62"/>
	<rect x="-1199.86" y="2793.19" class="st1" width="89.62" height="89.58"/>
	<rect x="-1091.72" y="2793.19" class="st1" width="89.58" height="89.58"/>
	<g>
		<polygon class="st0" points="-558.31,3224.58 -576.83,3224.58 -576.83,3137.43 -357.52,3137.43 -357.52,3009.4 -413.85,3009.4 
			-413.85,2990.88 -339,2990.88 -339,3155.95 -558.31,3155.95 		"/>
	</g>
	<path class="st0" d="M-622.96,3215.34v180.41h110.78v-180.41H-622.96z M-530.69,3377.23h-73.75v-143.37h73.75V3377.23z"/>
	<rect x="-604.44" y="3233.86" class="st1" width="73.75" height="143.37"/>
	<rect x="-889.37" y="2947.86" class="st0" width="105.55" height="18.52"/>
	<g>
		<rect x="-1110.24" y="2783.93" class="st0" width="18.52" height="216.19"/>
	</g>
	<g>
		<rect x="-1209.08" y="2882.77" class="st0" width="216.19" height="18.52"/>
	</g>
</g>
<g>
	<path class="st1" d="M-1068.27,3688.19v235.34h489.45v-235.34H-1068.27z M-611.08,3891.26H-1036v-170.8h424.92V3891.26z"/>
	<rect x="-994.27" y="3758.15" class="st1" width="340.14" height="32.2"/>
	<rect x="-1087.05" y="3688.19" class="st1" width="524.36" height="32.27"/>
	<path class="st1" d="M-600.17,3703.35c0,0.9-0.07,1.81-0.14,2.64l-16.06-1.67h-0.56l-15.51-0.76c0-5.15-0.21-10.29-0.7-15.37
		c-7.79-97.92-89.78-175.04-189.58-175.04c-99.8,0-181.93,77.19-189.58,175.04c-0.49,5.01-0.7,10.08-0.7,15.16l-32.13,2.23
		c-0.07-0.7-0.14-1.46-0.14-2.23c0-5.08,0.14-10.15,0.49-15.16c7.44-109.6,94.58-197.65,203.76-206.55
		c6.05-0.49,12.17-0.76,18.29-0.76c4.73,0,9.39,0.14,13.98,0.42c111.2,6.95,200.57,95.9,208.08,206.89
		C-600.31,3693.19-600.17,3698.27-600.17,3703.35z"/>
	<rect x="-841" y="3442" class="st1" width="32.27" height="46.94"/>
	<rect x="-1441.38" y="4411.59" class="st0" width="32.27" height="74.41"/>
	<rect x="-681.39" y="4411.59" class="st0" width="32.2" height="74.41"/>
	<polygon class="st0" points="-539.8,4068.18 -566.72,4077.77 -1460.01,4395.45 -1526.71,4419.17 -1532.13,4403.94 
		-1508.28,4395.45 -574.37,4063.31 -545.23,4052.95 -541.54,4063.31 	"/>
	<path class="st0" d="M-1182.18,3891.26c-13.77,19.47-36.51,32.27-62.17,32.27h685.71v107.52h-962.7v-107.52h94.02
		c-25.73,0-48.47-12.8-62.24-32.27h-64.05v172.05h1027.24v-172.05H-1182.18z"/>
	<path class="st0" d="M-1545.55,4031.04v396.68h1011.11v-396.68H-1545.55z M-566.72,4395.45h-946.57v-332.14h946.57V4395.45z"/>
	<path class="st0" d="M-1155.62,3669.9v-32.27h-358.71v32.27h12.38c2.57,12.03,8.07,23.02,15.58,32.2h-27.96v32.27h12.38
		c2.57,12.03,8.07,23.02,15.58,32.2c14.05,17.04,35.26,27.96,59.04,27.96h182.97c23.71,0,44.99-10.92,58.97-27.96
		c7.51-9.18,13-20.17,15.58-32.2h14.19v-32.27h-29.77c7.51-9.18,13-20.17,15.58-32.2H-1155.62z M-1244.36,3762.25h-182.97
		c-18.64,0-34.56-11.54-41.03-27.89h265.03C-1209.79,3750.71-1225.72,3762.25-1244.36,3762.25z M-1244.36,3697.78h-182.97
		c-18.64,0-34.56-11.54-41.03-27.89h265.03C-1209.79,3686.24-1225.72,3697.78-1244.36,3697.78z"/>
	<path class="st1" d="M-1203.32,3669.9c-6.47,16.34-22.39,27.89-41.03,27.89h-182.97c-18.64,0-34.56-11.54-41.03-27.89H-1203.32z"/>
	<path class="st1" d="M-1203.32,3734.36c-6.47,16.34-22.39,27.89-41.03,27.89h-182.97c-18.64,0-34.56-11.54-41.03-27.89H-1203.32z"
		/>
	<path class="st0" d="M-1185.38,3766.56c-13.98,17.04-35.26,27.96-58.97,27.96h-182.97c-23.78,0-45-10.92-59.04-27.96h-27.96v32.27
		h12.38c2.57,12.03,8.07,23.02,15.58,32.2c14.05,17.04,35.26,27.96,59.04,27.96h182.97c23.71,0,44.99-10.92,58.97-27.96
		c7.51-9.18,13-20.17,15.58-32.2h14.19v-32.27H-1185.38z M-1244.36,3826.79h-182.97c-18.64,0-34.56-11.61-41.03-27.96h265.03
		C-1209.79,3815.18-1225.72,3826.79-1244.36,3826.79z"/>
	<path class="st1" d="M-1203.32,3798.83c-6.47,16.34-22.39,27.96-41.03,27.96h-182.97c-18.64,0-34.56-11.61-41.03-27.96H-1203.32z"
		/>
	<path class="st0" d="M-1185.38,3831.03c-13.98,17.04-35.26,27.96-58.97,27.96h-182.97c-23.78,0-45-10.92-59.04-27.96h-27.96v32.27
		h12.38c2.16,10.22,6.47,19.68,12.38,27.96c13.77,19.47,36.51,32.27,62.24,32.27h182.97c25.66,0,48.4-12.8,62.17-32.27
		c5.91-8.28,10.22-17.73,12.38-27.96c1.11-5.22,1.74-10.57,1.74-16.13v-16.13H-1185.38z M-1244.36,3891.26h-182.97
		c-18.64,0-34.56-11.61-41.03-27.96h265.03C-1209.79,3879.64-1225.72,3891.26-1244.36,3891.26z"/>
	<path class="st1" d="M-1203.32,3863.3c-6.47,16.34-22.39,27.96-41.03,27.96h-182.97c-18.64,0-34.56-11.61-41.03-27.96H-1203.32z"/>
	<path class="st0" d="M-1155.62,3831.03v32.27h-14.19c1.11-5.22,1.74-10.57,1.74-16.13v-16.13H-1155.62z"/>
	<rect x="-1409.11" y="4427.72" class="st1" width="727.71" height="9.88"/>
	<polygon class="st1" points="-566.72,4077.77 -566.72,4395.45 -1460.01,4395.45 	"/>
	<path class="st0" d="M-994.27,3758.15v32.2h340.14v-32.2H-994.27z M-994.27,3758.15v32.2h340.14v-32.2H-994.27z M-578.82,3891.26
		v-170.8h16.13v-32.27h-37.97c-7.51-110.99-96.88-199.94-208.08-206.89V3442H-841v39.64c-109.18,8.9-196.32,96.94-203.76,206.55
		h-42.28v32.27h18.78v170.8h-113.91c-13.77,19.47-36.51,32.27-62.17,32.27h685.71v107.52h-962.7v-107.52h94.02
		c-25.73,0-48.47-12.8-62.24-32.27h-64.05v172.05h8.07v364.41h104.18V4486h32.27v-58.28h727.71V4486h32.2v-58.28h114.75v-364.41
		h8.07v-172.05H-578.82z M-822.71,3513.14c99.8,0,181.79,77.12,189.58,175.04h-379.16
		C-1004.64,3590.34-922.5,3513.14-822.71,3513.14z M-1036,3891.26v-170.8h424.92v170.8H-1036z M-574.37,4063.31l-933.84,332.14
		h-5.08v-332.14H-574.37z M-566.72,4395.45h-893.3l893.3-317.68V4395.45z M-994.27,3790.35h340.14v-32.2h-340.14V3790.35z
		 M-994.27,3758.15v32.2h340.14v-32.2H-994.27z M-994.27,3758.15v32.2h340.14v-32.2H-994.27z"/>
	<path class="st1" d="M-633.13,3688.19h-379.16c7.65-97.85,89.78-175.04,189.58-175.04
		C-722.91,3513.14-640.92,3590.27-633.13,3688.19z"/>
	<path class="st1" d="M-1036,3720.46v170.8h424.92v-170.8H-1036z M-654.13,3790.35h-340.14v-32.2h340.14V3790.35z"/>
	<rect x="-1521.35" y="3923.53" class="st1" width="962.7" height="107.52"/>
	<polygon class="st1" points="-574.37,4063.31 -1508.28,4395.45 -1513.28,4395.45 -1513.28,4063.31 	"/>
</g>
<g>
	<g>
		<path class="st1" d="M798.8,3930.25c-37.97,0-70.22,24.97-81.24,59.33c-0.77,2.37-1.42,4.82-1.98,7.28
			c-1.33,6.03-2.07,12.27-2.07,18.68c0,31.39,17.14,60.15,44.78,75.04l1.85,0.99v83.52l13.99,24.67l-14.77,27.6l14.77,29.66
			l-15.67,23.98l9.3,9.17l15.5,15.33l18.25,18.04l40.94-46.07v-188.79l1.64-1.03c24.97-15.63,39.91-42.58,39.91-72.11
			C884,3968.57,845.77,3930.25,798.8,3930.25z M798.8,4085.42c-10.16,0-19.85-2.11-28.89-6.16v-0.09
			c-24.93-11.28-41.07-36.25-41.07-63.63c0-38.53,31.34-69.88,69.96-69.88c38.49,0,69.79,31.34,69.79,69.88
			c0,25.75-13.99,49.3-36.68,61.48C821.87,4082.53,810.38,4085.42,798.8,4085.42z M830.57,4272.92l-29.62,33.41l-27.25-26.95
			l14.08-21.48l-15.07-30.31l15.03-27.94l-15.76-27.68v-75.34l4.48,1.29c0.6,0.13,1.16,0.26,1.81,0.39l3.14,0.73
			c2.54,0.47,5.04,0.9,7.62,1.16c0.43,0.09,2.41,0.22,2.41,0.22c1.81,0.13,3.62,0.3,5.47,0.3l1.03,0.04h1.21l0.9-0.04
			c2.71,0,5.51-0.22,8.27-0.52c0.69-0.04,2.71-0.34,2.71-0.34c2.67-0.43,5.34-0.9,8.01-1.55l0.9-0.21c2.02-0.47,4.05-1.12,6.03-1.72
			l4.61-1.55V4272.92z"/>
		<path class="st0" d="M798.8,3930.25c-37.97,0-70.22,24.97-81.24,59.33c-0.77,2.37-1.42,4.82-1.98,7.28
			c-1.33,6.03-2.07,12.27-2.07,18.68c0,31.39,17.14,60.15,44.78,75.04l1.85,0.99v83.52l13.99,24.67l-14.77,27.6l14.77,29.66
			l-15.67,23.98l9.3,9.17l15.5,15.33l18.25,18.04l40.94-46.07v-188.79l1.64-1.03c24.97-15.63,39.91-42.58,39.91-72.11
			C884,3968.57,845.77,3930.25,798.8,3930.25z M830.57,4272.92l-29.62,33.41l-27.25-26.95l14.08-21.48l-15.07-30.31l15.03-27.94
			l-15.76-27.68v-75.34l4.48,1.29c0.6,0.13,1.16,0.26,1.81,0.39l3.14,0.73c2.54,0.47,5.04,0.9,7.62,1.16
			c0.43,0.09,2.41,0.22,2.41,0.22c1.81,0.13,3.62,0.3,5.47,0.3l1.03,0.04h1.21l0.9-0.04c2.71,0,5.51-0.22,8.27-0.52
			c0.69-0.04,2.71-0.34,2.71-0.34c2.67-0.43,5.34-0.9,8.01-1.55l0.9-0.21c2.02-0.47,4.05-1.12,6.03-1.72l4.61-1.55V4272.92z
			 M833.58,4080.08c-10.59,5.77-22.6,8.83-34.79,8.83c-10.68,0-20.84-2.15-30.35-6.5c-26.18-11.88-43.14-38.1-43.14-66.86
			c0-40.47,32.98-73.41,73.49-73.41c40.38,0,73.28,32.94,73.28,73.41C872.07,4042.58,857.31,4067.29,833.58,4080.08z"/>
		<path class="st1" d="M830.57,4094.8v178.11l-29.62,33.41l-27.25-26.95l14.08-21.48l-15.07-30.31l15.03-27.94l-15.76-27.68v-75.34
			l4.48,1.29c0.6,0.13,1.16,0.26,1.81,0.39l3.14,0.73c2.54,0.47,5.04,0.9,7.62,1.16c0.43,0.09,2.41,0.22,2.41,0.22
			c1.81,0.13,3.62,0.3,5.47,0.3l1.03,0.04h1.21l0.9-0.04c2.71,0,5.51-0.22,8.27-0.52c0.69-0.04,2.71-0.34,2.71-0.34
			c2.67-0.43,5.34-0.9,8.01-1.55l0.9-0.21c2.02-0.47,4.05-1.12,6.03-1.72L830.57,4094.8z"/>
		<path class="st1" d="M798.8,3945.67c-38.62,0-69.96,31.34-69.96,69.88c0,27.38,16.14,52.35,41.07,63.63v0.09
			c9.04,4.05,18.73,6.16,28.89,6.16c11.58,0,23.08-2.88,33.11-8.4c22.69-12.18,36.68-35.73,36.68-61.48
			C868.59,3977.01,837.29,3945.67,798.8,3945.67z M798.71,4009.26c-10.85,0-19.76-8.83-19.76-19.76c0-10.85,8.91-19.76,19.76-19.76
			c10.94,0,19.76,8.91,19.76,19.76C818.47,4000.43,809.65,4009.26,798.71,4009.26z"/>
		<path d="M798.71,3969.74c-10.85,0-19.76,8.91-19.76,19.76c0,10.94,8.91,19.76,19.76,19.76c10.94,0,19.76-8.83,19.76-19.76
			C818.47,3978.65,809.65,3969.74,798.71,3969.74z M798.71,3997.33c-4.35,0-7.84-3.49-7.84-7.84s3.49-7.84,7.84-7.84
			c4.35,0,7.92,3.49,7.92,7.84S803.06,3997.33,798.71,3997.33z"/>
		<path class="st0" d="M798.71,3969.74c-10.85,0-19.76,8.91-19.76,19.76c0,10.94,8.91,19.76,19.76,19.76
			c10.94,0,19.76-8.83,19.76-19.76C818.47,3978.65,809.65,3969.74,798.71,3969.74z M798.71,3997.33c-4.35,0-7.84-3.49-7.84-7.84
			s3.49-7.84,7.84-7.84c4.35,0,7.92,3.49,7.92,7.84S803.06,3997.33,798.71,3997.33z"/>
		<path class="st0" d="M720.31,3979.98c-1.08,3.14-1.98,6.37-2.76,9.6c-0.65,2.54-1.16,5.08-1.59,7.66
			c-0.13-0.13-0.26-0.26-0.39-0.39c-44.13-45.51-105.14-71.6-168.77-71.6h-79.35v364.92h109.23v15.33H452.13v-395.57h94.67
			C611.95,3909.93,673.47,3934.82,720.31,3979.98z"/>
		<path class="st0" d="M720.31,3979.98c-1.08,3.14-1.98,6.37-2.76,9.6c-0.65,2.54-1.16,5.08-1.59,7.66
			c-0.13-0.13-0.26-0.26-0.39-0.39c-44.13-45.51-105.14-71.6-168.77-71.6h-79.35v364.92h109.23v15.33H452.13v-395.57h94.67
			C611.95,3909.93,673.47,3934.82,720.31,3979.98z"/>
		<polygon points="773.4,4305.51 677,4305.51 677,4290.18 757.85,4290.18 		"/>
		<polygon class="st0" points="786.31,4305.51 677,4305.51 677,4290.18 770.77,4290.18 		"/>
		<path class="st0" d="M584.56,3967.84h-31.13v156.46h179.83v-7.79C733.27,4034.57,666.54,3967.84,584.56,3967.84z M568.72,4108.88
			v-125.63h15.84c68.67,0,127.01,53.52,132.86,121.84l0.3,3.79H568.72z"/>
		<polygon class="st0" points="434.22,4148.32 434.22,4305.51 317.29,4305.51 317.29,4290.18 418.9,4290.18 418.9,4163.69 
			-144.67,4163.69 -144.67,4290.18 -61.11,4290.18 -61.11,4305.51 -160,4305.51 -160,4148.32 		"/>
		<polygon class="st0" points="434.22,4148.32 434.22,4305.51 317.29,4305.51 317.29,4290.18 418.9,4290.18 418.9,4163.69 
			-144.67,4163.69 -144.67,4290.18 -61.11,4290.18 -61.11,4305.51 -160,4305.51 -160,4148.32 		"/>
		<rect x="39.21" y="4290.18" width="169.16" height="15.33"/>
		<rect x="39.21" y="4290.18" class="st0" width="169.16" height="15.33"/>
		<path class="st0" d="M137.11,3750.03l-118.05,62.21v-49.9h-79.39v91.88l-79.56,42.02l7.23,13.56l47.23-24.93l15.37-8.14
			l207.17-109.36l208.81,110.22l15.33,8.09l45.64,24.11l7.15-13.56L137.11,3750.03z M3.73,3820.38L-45,3846.17v-68.5H3.73V3820.38z"
			/>
		<path class="st0" d="M137.11,3750.03l-118.05,62.21v-49.9h-79.39v91.88l-79.56,42.02l7.23,13.56l47.23-24.93l15.37-8.14
			l207.17-109.36l208.81,110.22l15.33,8.09l45.64,24.11l7.15-13.56L137.11,3750.03z M3.73,3820.38L-45,3846.17v-68.5H3.73V3820.38z"
			/>
		<polygon class="st1" points="3.73,3777.67 3.73,3820.38 -45,3846.17 -45,3777.67 		"/>
		<polygon class="st0" points="361.25,3871.57 361.25,4124.21 -85.43,4124.21 -85.43,3873.68 -70.06,3873.68 -70.06,4108.88 
			345.92,4108.88 345.92,3871.57 		"/>
		<polygon class="st1" points="345.92,3877.6 345.92,4108.88 -70.06,4108.88 -70.06,3876.74 137.11,3767.38 		"/>
		<polygon class="st0" points="361.25,3871.57 361.25,4124.21 -85.43,4124.21 -85.43,3873.68 -70.06,3873.68 -70.06,4108.88 
			345.92,4108.88 345.92,3871.57 		"/>
		<path d="M48.85,4290.18c-3.75-28.42-28.11-50.42-57.61-50.42c-29.49,0-53.9,22-57.65,50.42c-0.34,2.5-0.52,5.08-0.52,7.66
			c0,2.58,0.17,5.17,0.52,7.66c3.75,28.46,28.16,50.46,57.65,50.46c29.49,0,53.86-22,57.61-50.46c0.34-2.5,0.52-5.08,0.52-7.66
			C49.37,4295.26,49.2,4292.68,48.85,4290.18z M-8.75,4335.04c-20.49,0-37.24-16.66-37.24-37.2c0-20.49,16.75-37.16,37.24-37.16
			c20.54,0,37.2,16.66,37.2,37.16C28.44,4318.38,11.78,4335.04-8.75,4335.04z"/>
		<path class="st0" d="M48.85,4290.18c-3.75-28.42-28.11-50.42-57.61-50.42c-29.49,0-53.9,22-57.65,50.42
			c-0.34,2.5-0.52,5.08-0.52,7.66c0,2.58,0.17,5.17,0.52,7.66c3.75,28.46,28.16,50.46,57.65,50.46c29.49,0,53.86-22,57.61-50.46
			c0.34-2.5,0.52-5.08,0.52-7.66C49.37,4295.26,49.2,4292.68,48.85,4290.18z M-8.75,4335.04c-20.49,0-37.24-16.66-37.24-37.2
			c0-20.49,16.75-37.16,37.24-37.16c20.54,0,37.2,16.66,37.2,37.16C28.44,4318.38,11.78,4335.04-8.75,4335.04z"/>
		<path class="st1" d="M28.44,4297.84c0,20.54-16.66,37.2-37.2,37.2c-20.49,0-37.24-16.66-37.24-37.2
			c0-20.49,16.75-37.16,37.24-37.16C11.78,4260.69,28.44,4277.35,28.44,4297.84z"/>
		<path d="M318.24,4290.18c-3.75-28.42-28.11-50.42-57.52-50.42c-29.49,0-53.95,22-57.69,50.42c-0.34,2.5-0.52,5.08-0.52,7.66
			c0,2.58,0.17,5.17,0.52,7.66c3.75,28.46,28.2,50.46,57.69,50.46c29.41,0,53.77-22,57.52-50.46c0.34-2.5,0.52-5.08,0.52-7.66
			C318.75,4295.26,318.58,4292.68,318.24,4290.18z M260.72,4335.04c-20.54,0-37.28-16.66-37.28-37.2
			c0-20.49,16.75-37.16,37.28-37.16c20.49,0,37.16,16.66,37.16,37.16C297.87,4318.38,281.21,4335.04,260.72,4335.04z"/>
		<path class="st0" d="M318.24,4290.18c-3.75-28.42-28.11-50.42-57.52-50.42c-29.49,0-53.95,22-57.69,50.42
			c-0.34,2.5-0.52,5.08-0.52,7.66c0,2.58,0.17,5.17,0.52,7.66c3.75,28.46,28.2,50.46,57.69,50.46c29.41,0,53.77-22,57.52-50.46
			c0.34-2.5,0.52-5.08,0.52-7.66C318.75,4295.26,318.58,4292.68,318.24,4290.18z M260.72,4335.04c-20.54,0-37.28-16.66-37.28-37.2
			c0-20.49,16.75-37.16,37.28-37.16c20.49,0,37.16,16.66,37.16,37.16C297.87,4318.38,281.21,4335.04,260.72,4335.04z"/>
		<path class="st1" d="M297.87,4297.84c0,20.54-16.66,37.2-37.16,37.2c-20.54,0-37.28-16.66-37.28-37.2
			c0-20.49,16.75-37.16,37.28-37.16C281.21,4260.69,297.87,4277.35,297.87,4297.84z"/>
		<path class="st1" d="M418.9,4163.69v126.49H318.24c-3.75-28.42-28.11-50.42-57.52-50.42c-29.49,0-53.95,22-57.69,50.42H48.85
			c-3.75-28.42-28.11-50.42-57.61-50.42c-29.49,0-53.9,22-57.65,50.42h-78.27v-126.49H418.9z"/>
		<path d="M682.25,4290.18c-3.75-28.42-28.11-50.42-57.52-50.42c-29.49,0-53.86,22-57.61,50.42c-0.34,2.5-0.52,5.08-0.52,7.66
			c0,2.58,0.17,5.17,0.52,7.66c3.75,28.46,28.11,50.46,57.61,50.46c29.41,0,53.77-22,57.52-50.46c0.34-2.5,0.52-5.08,0.52-7.66
			C682.77,4295.26,682.6,4292.68,682.25,4290.18z M624.73,4335.04c-20.49,0-37.16-16.66-37.16-37.2c0-20.49,16.66-37.16,37.16-37.16
			c20.45,0,37.11,16.66,37.11,37.16C661.84,4318.38,645.18,4335.04,624.73,4335.04z"/>
		<path class="st0" d="M682.25,4290.18c-3.75-28.42-28.11-50.42-57.52-50.42c-29.49,0-53.86,22-57.61,50.42
			c-0.34,2.5-0.52,5.08-0.52,7.66c0,2.58,0.17,5.17,0.52,7.66c3.75,28.46,28.11,50.46,57.61,50.46c29.41,0,53.77-22,57.52-50.46
			c0.34-2.5,0.52-5.08,0.52-7.66C682.77,4295.26,682.6,4292.68,682.25,4290.18z M624.73,4335.04c-20.49,0-37.16-16.66-37.16-37.2
			c0-20.49,16.66-37.16,37.16-37.16c20.45,0,37.11,16.66,37.11,37.16C661.84,4318.38,645.18,4335.04,624.73,4335.04z"/>
		<path class="st1" d="M759.36,4227.37l14.77-27.6l-13.99-24.67v-83.52l-1.85-0.99c-27.64-14.9-44.78-43.66-44.78-75.04
			c0-6.41,0.73-12.66,2.07-18.68c-44.13-45.51-105.14-71.6-168.77-71.6h-79.35v364.92h99.67c3.75-28.42,28.11-50.42,57.61-50.42
			c29.41,0,53.77,22,57.52,50.42h85.5l-9.3-9.17l15.67-23.98L759.36,4227.37z M733.27,4124.3H553.44v-156.46h31.13
			c81.97,0,148.71,66.73,148.71,148.66V4124.3z"/>
		<path class="st1" d="M717.73,4108.88H568.72v-125.63h15.84c68.67,0,127.01,53.52,132.86,121.84L717.73,4108.88z"/>
		<path class="st1" d="M661.84,4297.84c0,20.54-16.66,37.2-37.11,37.2c-20.49,0-37.16-16.66-37.16-37.2
			c0-20.49,16.66-37.16,37.16-37.16C645.18,4260.69,661.84,4277.35,661.84,4297.84z"/>
	</g>
	<rect x="-12.5" y="3910" class="st2" width="85.5" height="105"/>
	<line class="st2" x1="-13" y1="3968" x2="73" y2="3968"/>
</g>
<g>
	<path class="st0" d="M535.86,373.09v622.33h128.33V373.09H535.86z M545.05,986.22V382.28h109.94v603.93H545.05z"/>
	<polygon class="st1" points="603.17,986.22 545.05,986.22 545.05,928.06 	"/>
	<polygon class="st1" points="654.99,382.28 654.99,986.22 613.29,986.22 614.76,984.75 545.05,915.09 545.05,776.19 608.23,839.36 
		614.76,832.88 545.05,763.22 545.05,618.02 608.23,681.19 614.76,674.71 545.05,605.01 545.05,466.15 608.23,529.33 614.76,522.84 
		545.05,453.14 545.05,382.28 	"/>
	<path class="st0" d="M757.06,986.22H442.98c-31.04,0-56.28,25.2-56.28,56.23v54.12H813.3v-54.12
		C813.3,1011.42,788.05,986.22,757.06,986.22z M804.1,1087.37H395.9v-44.92c0-25.93,21.1-47.04,47.08-47.04h314.08
		c25.93,0,47.04,21.1,47.04,47.04V1087.37z"/>
	<path class="st1" d="M804.1,1042.45v44.92H395.9v-44.92c0-25.93,21.1-47.04,47.08-47.04h314.08
		C783,995.42,804.1,1016.52,804.1,1042.45z"/>
	<g>
		<rect x="579.52" y="236.75" class="st0" width="40.96" height="140.94"/>
	</g>
	<g>
		<rect x="196.72" y="282.87" class="st0" width="806.56" height="9.2"/>
	</g>
	<g>
		<path class="st1" d="M273.5,282.88c74.62-35.82,154.17-58.95,236.79-68.6l9.98-17.47c-96.97,10.02-189.99,37.84-276.52,82.85
			l-6.16,3.22l-1.24,0.64l1.84,5.43l0.23,1.15l-0.69,1.98L94.74,715.45H78v8.09c0,93.2,75.82,169.11,169.06,169.11
			c93.2,0,169.11-75.91,169.11-169.11v-8.09h-16.83L256.4,292.07l-0.23-0.64l3.54-1.79C264.31,287.34,268.9,285.04,273.5,282.88z
			 M399.9,731.68l-0.46,4.83c-6.67,78.44-73.57,139.91-152.37,139.91c-78.76,0-145.75-61.47-152.33-139.91l-0.46-4.83H399.9z
			 M382.34,715.45H111.84l135.22-400.43L382.34,715.45z"/>
	</g>
	<path class="st0" d="M273.5,282.88c74.62-35.82,154.17-58.95,236.79-68.6l9.98-17.47c-96.97,10.02-189.99,37.84-276.52,82.85
		l-6.16,3.22l-1.24,0.64l1.84,5.43l0.23,1.15l-0.69,1.98L94.74,715.45H78v8.09c0,93.2,75.82,169.11,169.06,169.11
		c93.2,0,169.11-75.91,169.11-169.11v-8.09h-16.83L256.4,292.07l-0.23-0.64l3.54-1.79C264.31,287.34,268.9,285.04,273.5,282.88z
		 M399.9,731.68l-0.46,4.83c-6.67,78.44-73.57,139.91-152.37,139.91c-78.76,0-145.75-61.47-152.33-139.91l-0.46-4.83H399.9z
		 M382.34,715.45H111.84l135.22-400.43L382.34,715.45z"/>
	<path class="st1" d="M399.9,731.68l-0.46,4.83c-6.67,78.44-73.57,139.91-152.37,139.91c-78.76,0-145.75-61.47-152.33-139.91
		l-0.46-4.83H399.9z"/>
	<g>
		<path class="st1" d="M1105.26,715.45L962.31,292.07l-1.01-2.99l-6.94,2.35l-1.98,0.37l-6.39-2.25l3.49-6.67l2.44-4.69
			c-85.34-43.91-176.84-71.22-272.1-81.2l10.07,17.47c81.93,9.89,160.88,32.88,234.95,68.42c4.97,2.39,9.93,4.83,14.85,7.31
			l4.23,0.97l-0.32,0.92L800.65,715.45h-16.74v8.09c0,93.2,75.82,169.11,169.11,169.11c93.15,0,168.97-75.91,168.97-169.11v-8.09
			H1105.26z M952.94,315.02l135.22,400.43H817.66L952.94,315.02z M1105.26,736.51c-6.57,78.44-73.47,139.91-152.24,139.91
			c-78.9,0-145.8-61.47-152.47-139.91l-0.37-4.83h305.53L1105.26,736.51z"/>
	</g>
	<path class="st0" d="M1105.26,715.45L962.31,292.07l-1.01-2.99l-6.94,2.35l-1.98,0.37l-6.39-2.25l3.49-6.67l12.22,0.28
		c-95.03-49.97-186.62-76.2-281.89-86.17l10.07,17.47c81.93,9.89,160.88,32.88,234.95,68.42c4.97,2.39,9.93,4.83,14.85,7.31
		l4.23,0.97l-0.32,0.92L800.65,715.45h-16.74v8.09c0,93.2,75.82,169.11,169.11,169.11c93.15,0,168.97-75.91,168.97-169.11v-8.09
		H1105.26z M952.94,315.02l135.22,400.43H817.66L952.94,315.02z M1105.26,736.51c-6.57,78.44-73.47,139.91-152.24,139.91
		c-78.9,0-145.8-61.47-152.47-139.91l-0.37-4.83h305.53L1105.26,736.51z"/>
	<path class="st1" d="M1105.72,731.68l-0.46,4.83c-6.57,78.44-73.47,139.91-152.24,139.91c-78.9,0-145.8-61.47-152.47-139.91
		l-0.37-4.83H1105.72z"/>
	<g>
		<circle class="st0" cx="196.73" cy="287.47" r="26.43"/>
	</g>
	<g>
		<circle class="st0" cx="1003.29" cy="287.47" r="26.43"/>
	</g>
	<g>
		<polygon class="st0" points="600.01,103.43 519.98,242.04 680.03,242.04 		"/>
	</g>
	<g>
		<polygon class="st0" points="614.76,522.84 608.23,529.33 545.05,466.15 537.19,458.29 543.68,451.76 545.05,453.14 		"/>
	</g>
	<g>
		<polygon class="st0" points="614.76,674.71 608.23,681.19 545.05,618.02 537.19,610.16 543.68,603.63 		"/>
	</g>
	<g>
		<polygon class="st0" points="614.76,832.88 608.23,839.36 545.05,776.19 537.19,768.32 543.68,761.84 545.05,763.22 		"/>
	</g>
	<g>
		<polygon class="st0" points="614.76,984.75 613.29,986.22 608.23,991.28 603.17,986.22 545.05,928.06 537.19,920.19 
			543.68,913.71 545.05,915.09 		"/>
	</g>
</g>
</svg>
