<?xml version="1.0" encoding="utf-8"?>
<!-- Generator: Adobe Illustrator 23.0.0, SVG Export Plug-In . SVG Version: 6.00 Build 0)  -->
<svg version="1.1" id="Layer_1" xmlns="http://www.w3.org/2000/svg" xmlns:xlink="http://www.w3.org/1999/xlink" x="0px" y="0px"
	 viewBox="0 0 1200 1200" style="enable-background:new 0 0 1200 1200;" xml:space="preserve">
<style type="text/css">
	.st0{fill:#333333;}
	.st1{fill:#FF6600;}
</style>
<g>
	<path class="st0" d="M-1383.22-874.79l-0.05,804.21h22.01l0.05-456.28v-22.01l0.05-303.92h550.28v991.56h-550.37V88.46h-22.01
		v72.32h594.38V-874.79H-1383.22z"/>
	<path class="st1" d="M-1361.17-852.78l-0.05,303.92h550.33v-303.92H-1361.17z M-1269.36-592.03h-22.01v-191.56h22.01V-592.03z"/>
	<g>
		<polygon class="st0" points="-582,-462.33 -582,103.23 -793.46,103.23 -793.46,81.17 -604.01,81.17 -604.01,-440.33 
			-793.46,-440.33 -793.46,-462.33 		"/>
	</g>
	<path class="st1" d="M-684.04-121.97c0,60.36-49.1,109.93-109.51,110.5v-220.99C-733.14-231.9-684.04-182.33-684.04-121.97z"/>
	<path class="st0" d="M-662.03-121.97c0,70.88-56.49,129.32-126.85,132.36c-1.5,0.09-2.99,0.14-4.49,0.14l-0.19-22.01
		c1.54,0,3.13-0.05,4.67-0.14c58.26-2.99,104.84-51.53,104.84-110.36c0-58.82-46.58-107.36-104.84-110.36
		c-1.54-0.09-3.13-0.14-4.67-0.14l0.19-22.05c1.5,0,2.99,0.05,4.49,0.14C-718.52-251.34-662.03-192.89-662.03-121.97z"/>
	<path class="st1" d="M-604.01-309.04V81.17h-184.88V10.39c70.36-3.04,126.85-61.49,126.85-132.36
		c0-70.92-56.49-129.37-126.85-132.41v-54.66H-604.01z"/>
	<rect x="-793.46" y="-331.09" class="st0" width="200.43" height="22.05"/>
	<g>
		<path class="st0" d="M-673.01-404.77c-16.21,0-29.39,13.18-29.39,29.39c0,16.21,13.18,29.39,29.39,29.39
			c16.21,0,29.39-13.18,29.39-29.39C-643.63-391.6-656.8-404.77-673.01-404.77z M-673.01-368c-4.06,0-7.38-3.32-7.38-7.38
			c0-4.06,3.32-7.34,7.38-7.34c4.06,0,7.34,3.27,7.34,7.34C-665.68-371.32-668.95-368-673.01-368z"/>
	</g>
	<path class="st0" d="M-738.56-404.77c-16.21,0-29.39,13.18-29.39,29.39c0,16.21,13.18,29.39,29.39,29.39
		c16.17,0,29.39-13.18,29.39-29.39C-709.17-391.6-722.4-404.77-738.56-404.77z M-738.56-368c-4.06,0-7.38-3.32-7.38-7.38
		c0-4.06,3.32-7.34,7.38-7.34s7.34,3.27,7.34,7.34C-731.23-371.32-734.5-368-738.56-368z"/>
	<path class="st1" d="M-788.88-440.33v109.23h184.88v-109.23H-788.88z M-738.56-346c-16.21,0-29.39-13.18-29.39-29.39
		c0-16.21,13.18-29.39,29.39-29.39c16.17,0,29.39,13.18,29.39,29.39C-709.17-359.17-722.4-346-738.56-346z M-673.01-346
		c-16.21,0-29.39-13.18-29.39-29.39c0-16.21,13.18-29.39,29.39-29.39c16.21,0,29.39,13.18,29.39,29.39
		C-643.63-359.17-656.8-346-673.01-346z"/>
	<path class="st1" d="M-731.23-375.38c0,4.06-3.27,7.38-7.34,7.38s-7.38-3.32-7.38-7.38c0-4.06,3.32-7.34,7.38-7.34
		S-731.23-379.45-731.23-375.38z"/>
	<path class="st1" d="M-665.68-375.38c0,4.06-3.27,7.38-7.34,7.38c-4.06,0-7.38-3.32-7.38-7.38c0-4.06,3.32-7.34,7.38-7.34
		C-668.95-382.72-665.68-379.45-665.68-375.38z"/>
	<g>
		<rect x="-1372.19" y="-548.86" class="st0" width="572.29" height="22.01"/>
	</g>
	<g>
		<rect x="-1291.37" y="-783.59" class="st0" width="22.01" height="191.56"/>
	</g>
	<g>
		<rect x="-1291.37" y="-479.71" class="st0" width="22.01" height="190.25"/>
	</g>
	<path class="st0" d="M-1326.31-70.58h-91.81L-1464,8.94l45.88,79.52h91.81l45.97-79.52L-1326.31-70.58z M-1361.26,52.53
		c-3.5,0.89-7.19,1.36-10.98,1.36c-3.78,0-7.48-0.47-11.03-1.36c-19.44-4.95-33.87-22.61-33.87-43.59
		c0-21.02,14.44-38.69,33.87-43.64c3.55-0.89,7.24-1.35,11.03-1.35c3.78,0,7.48,0.47,10.98,1.35c19.58,4.91,33.97,22.57,33.97,43.64
		C-1327.29,29.97-1341.68,47.67-1361.26,52.53z"/>
	<path class="st1" d="M-1327.29,8.94c0,21.02-14.39,38.73-33.97,43.59c-3.5,0.89-7.19,1.36-10.98,1.36c-3.78,0-7.48-0.47-11.03-1.36
		c-19.44-4.95-33.87-22.61-33.87-43.59c0-21.02,14.44-38.69,33.87-43.64c3.55-0.89,7.24-1.35,11.03-1.35
		c3.78,0,7.48,0.47,10.98,1.35C-1341.68-29.79-1327.29-12.13-1327.29,8.94z"/>
	<path class="st1" d="M-1361.21-526.85l-0.05,456.28h34.95l45.97,79.52l-45.97,79.52h-34.95v50.32h550.37v-665.63H-1361.21z
		 M-1269.36-289.46h-22.01v-190.25h22.01V-289.46z"/>
</g>
<g>
	<g>
		<polygon class="st0" points="-760.13,286.37 -760.13,562.35 -782.28,562.35 -782.28,308.52 -1495.8,308.52 -1495.8,756.16 
			-1000.92,756.16 -1000.92,778.32 -1518,778.32 -1518,286.37 		"/>
	</g>
	<path class="st0" d="M-1206.62,789.69v86.63h135.11v-86.63H-1206.62z M-1093.67,854.17h-90.79v-42.28h90.79V854.17z"/>
	<rect x="-1184.46" y="811.89" class="st1" width="90.79" height="42.28"/>
	<g>
		<path class="st0" d="M-1000.92,562.35v314.82h496.53V562.35H-1000.92z M-526.55,855.02h-452.22V584.55h452.22V855.02z"/>
		<rect x="-978.77" y="584.55" class="st1" width="452.22" height="270.47"/>
	</g>
	<g>
		<polygon class="st0" points="-474,885.92 -474,913.63 -1031.31,913.63 -1031.31,910.83 -1269.82,910.83 -1269.82,888.67 
			-1031.31,888.67 -1031.31,885.92 		"/>
	</g>
	<path class="st0" d="M-1234.42,472.66c0.34,0.55,0.76,1.02,1.23,1.49l15.7,15.71L-1234.42,472.66z M-1233.19,458.65
		c-0.3,0.3-0.59,0.64-0.85,0.98l19.74-19.86L-1233.19,458.65z"/>
	<path class="st1" d="M-1495.8,308.52v447.63h494.88V562.35h218.64V308.52H-1495.8z M-1023,556.66h-33.11
		c-1.83,6.32-4.37,12.44-7.6,18.21l23.47,23.43l-26.66,26.66c-3.74,3.74-10.57,4.92-16.72-1.27l-14.47-14.43
		c-5.77,3.23-11.84,5.73-18.17,7.56v33.15h-48.64v-33.15c-6.32-1.83-12.44-4.33-18.21-7.56l-7.22,7.22l-8.49,8.49l-7.73,7.77
		l-26.66-26.66c-2.5-2.5-3.57-5.94-2.93-9.42c0.51-2.59,1.91-5.05,4.2-7.34l14.43-14.43c-3.23-5.77-5.73-11.88-7.56-18.21h-33.15
		v-48.64h33.15c1.83-6.32,4.33-12.39,7.56-18.17l-15.7-15.71c-0.47-0.47-0.89-0.93-1.23-1.49l-0.13-0.17l-6.11-6.2l6.62-6.66
		c0.25-0.34,0.55-0.68,0.85-0.98l18.89-18.89c1.99-1.99,4.63-2.89,7.43-3.1c3.31,0,6.45,1.44,9.3,4.33l14.47,14.43
		c5.77-3.18,11.88-5.73,18.21-7.56v-33.11h48.64v33.11c6.32,1.83,12.39,4.37,18.17,7.56l23.47-23.43l26.61,26.66
		c1.99,2,3.1,4.63,3.1,7.43c0,3.27-1.44,6.41-4.33,9.3l-14.47,14.47c3.23,5.77,5.77,11.84,7.6,18.17h33.11V556.66z"/>
	<path class="st0" d="M-1023,556.66v-48.64h-33.11c-1.83-6.32-4.37-12.39-7.6-18.17l14.47-14.47c2.89-2.89,4.33-6.03,4.33-9.3
		c0-2.8-1.1-5.43-3.1-7.43l-26.61-26.66l-23.47,23.43c-5.77-3.18-11.84-5.73-18.17-7.56v-33.11h-48.64v33.11
		c-6.32,1.83-12.44,4.37-18.21,7.56l-14.47-14.43c-2.84-2.89-5.98-4.33-9.3-4.33c-2.8,0.21-5.43,1.1-7.43,3.1l-19.74,19.86
		l-6.62,6.66l6.11,6.2l0.13,0.17l16.94,17.19c-3.23,5.77-5.73,11.84-7.56,18.17h-33.15v48.64h33.15c1.83,6.32,4.33,12.44,7.56,18.21
		l-14.43,14.43c-2.29,2.29-3.69,4.75-4.2,7.34c-0.64,3.48,0.42,6.92,2.93,9.42l26.66,26.66l7.73-7.77l8.49-8.49l7.22-7.22
		c5.77,3.23,11.88,5.73,18.21,7.56v33.15h48.64v-33.15c6.32-1.83,12.39-4.33,18.17-7.56l14.47,14.43c6.15,6.2,12.99,5.01,16.72,1.27
		l26.66-26.66l-23.47-23.43c3.23-5.77,5.77-11.88,7.6-18.21H-1023z M-1063.74,598.3l-10.87,10.87l-14.77-14.73
		c-3.65-3.65-9.25-4.29-13.67-1.57c-9.04,5.69-19.19,9.17-29.84,10.31v30.14h-15.41v-30.14c-13.46-1.44-26.1-6.66-36.89-15.28
		c-0.04,0-0.08,0-0.08,0l-21.27,21.27l-10.91-10.87c0,0,20.8-20.76,21.31-21.31c0,0,0,0,0-0.04c-8.62-10.78-13.84-23.43-15.28-36.93
		h-30.14v-15.37h30.14c1.44-13.5,6.66-26.15,15.24-36.93c0.04,0,0.04-0.04,0-0.08l-21.22-21.27l10.87-10.87
		c0,0,20.71,20.76,21.31,21.31c0,0,0,0,0.04-0.04c10.74-8.57,23.43-13.84,36.89-15.28v-30.14h15.41v30.14
		c13.5,1.49,26.19,6.71,36.89,15.28c0.04,0.04,0.08,0.04,0.08,0l21.31-21.27l10.87,10.87l-14.77,14.77
		c-3.61,3.65-4.24,9.21-1.53,13.63c5.65,9.13,9.17,19.23,10.31,29.88h30.09v15.37h-30.09c-1.44,13.5-6.66,26.1-15.28,36.93
		c-0.04,0.04-0.04,0.08,0,0.08L-1063.74,598.3z"/>
	<path class="st1" d="M-1069.73,540.02h30.09v-15.37h-30.09c-1.15-10.65-4.67-20.76-10.31-29.88c-2.72-4.41-2.08-9.97,1.53-13.63
		l14.77-14.77l-10.87-10.87l-21.31,21.27c0,0.04-0.04,0.04-0.08,0c-10.7-8.57-23.39-13.79-36.89-15.28v-30.14h-15.41v30.14
		c-13.46,1.44-26.15,6.71-36.89,15.28c-0.04,0.04-0.04,0.04-0.04,0.04c-0.59-0.55-21.31-21.31-21.31-21.31l-10.87,10.87l21.22,21.27
		c0.04,0.04,0.04,0.08,0,0.08c-8.57,10.78-13.8,23.43-15.24,36.93h-30.14v15.37h30.14c1.44,13.5,6.66,26.15,15.28,36.93
		c0,0.04,0,0.04,0,0.04c-0.51,0.55-21.31,21.31-21.31,21.31l10.91,10.87l21.27-21.27c0,0,0.04,0,0.08,0
		c10.78,8.62,23.43,13.84,36.89,15.28v30.14h15.41v-30.14c10.65-1.15,20.8-4.63,29.84-10.31c4.41-2.72,10.02-2.08,13.67,1.57
		l14.77,14.73l10.87-10.87l-21.27-21.27c-0.04,0-0.04-0.04,0-0.08C-1076.39,566.13-1071.17,553.52-1069.73,540.02z M-1107.34,588.84
		c-60.32,30.94-120.67-29.42-89.73-89.73c5.14-9.93,13.29-18.12,23.26-23.22c60.27-30.99,120.67,29.42,89.69,89.69
		C-1089.21,575.55-1097.4,583.7-1107.34,588.84z"/>
	<g>
		<path class="st0" d="M-1084.12,565.58c-5.09,9.97-13.29,18.12-23.22,23.26c-60.32,30.94-120.67-29.42-89.73-89.73
			c5.14-9.93,13.29-18.12,23.26-23.22C-1113.53,444.9-1053.13,505.3-1084.12,565.58z"/>
	</g>
	<circle class="st1" cx="-1140.58" cy="532.34" r="47.73"/>
</g>
<g>
	<path class="st1" d="M881.6,611.09h107.15c-5.76,205.68-172.03,371.9-377.66,377.66V881.6h-22.18v107.15
		c-205.68-5.76-371.9-171.98-377.66-377.66H318.4v-22.18H211.25c5.76-205.68,171.98-371.9,377.66-377.66V318.4h22.18V211.25
		c205.63,5.76,371.9,171.98,377.66,377.66H881.6V611.09z"/>
	<g>
		<g>
			<path class="st0" d="M725.74,569.5c-1.26-5.47-2.86-10.85-4.74-16.17c-0.44-1.5-0.97-2.95-1.55-4.45
				c-1.98-5.18-5.81-9.3-10.89-11.52c-5.04-2.23-10.6-2.32-15.74-0.29c-0.19,0.05-0.34,0.15-0.53,0.19
				c-17.58,18.69-46.97,31.42-80.62,32.97c13.17-0.39,26.15-1.69,38.98-3.97c5.52-1.02,10.94-2.18,16.37-3.49
				c1.79-0.48,3.58-0.92,5.37-1.4c1.26-0.34,2.52-0.68,3.73-1.07c1.02-0.24,1.99-0.53,2.95-0.87c1.89-0.53,3.73-1.11,5.57-1.74
				c2.42-0.77,4.79-1.6,7.17-2.47c2.37-0.82,4.74-1.74,7.12-2.66c1.31-0.53,2.37-0.19,2.91,0.05c0.53,0.24,1.55,0.82,2.03,2.18
				c6.34,16.75,9.59,34.43,9.59,52.53c0,66.33-42.9,123.37-105.46,142.11c-2.76,0.87-5.52,1.6-8.33,2.28
				c-2.81-0.68-5.57-1.4-8.33-2.28c-62.56-18.74-105.41-75.78-105.41-142.11c0-19.46,3.68-38.4,10.99-56.26
				c0.58-1.36,1.6-1.94,2.18-2.18c0.34-0.15,0.82-0.24,1.36-0.24c0.44,0,0.97,0.05,1.5,0.29c30.79,13.51,63.57,20.72,97.42,21.35
				c-34.28-1.21-64.3-14.09-82.12-33.02c-2.9-1.11-5.76-2.32-8.62-3.58c-5.08-2.23-10.7-2.32-15.78-0.24
				c-5.18,2.08-9.2,6.1-11.33,11.33c-1.16,2.81-2.23,5.62-3.2,8.47c-1.84,5.33-3.39,10.7-4.65,16.17c-3,12.35-4.45,25.03-4.45,37.91
				c0,1.94,0.05,3.82,0.1,5.76c0.19,5.62,0.68,11.18,1.4,16.66c2.03,15.4,6.2,30.16,12.25,43.96c2.28,5.33,4.84,10.51,7.7,15.49
				c22.27,39.27,60.38,68.61,107.15,79.21l1.84,0.39l1.84-0.39c46.87-10.6,84.97-39.99,107.2-79.31c2.86-4.99,5.42-10.17,7.75-15.49
				c5.96-13.75,10.12-28.52,12.15-43.87c0.73-5.47,1.21-11.04,1.4-16.66c0.05-1.94,0.1-3.83,0.1-5.76
				C730.1,594.48,728.65,581.84,725.74,569.5z"/>
			<path class="st0" d="M713.44,607.31c0,66.33-42.9,123.37-105.46,142.11V684.2h-16.66v65.22
				c-62.56-18.74-105.41-75.78-105.41-142.11c0-19.46,3.68-38.4,10.99-56.26c0.58-1.36,1.6-1.94,2.18-2.18
				c0.34-0.15,0.82-0.24,1.36-0.24c0.44,0,0.97,0.05,1.5,0.29c30.79,13.51,63.57,20.72,97.42,21.35c1.79,0.05,3.58,0.1,5.37,0.1
				h0.05c2.32,0,4.6-0.05,6.88-0.15c13.17-0.39,26.15-1.69,38.98-3.97c5.52-1.02,10.94-2.18,16.37-3.49
				c1.79-0.48,3.58-0.92,5.37-1.4c1.26-0.34,2.52-0.68,3.73-1.07c1.02-0.24,1.99-0.53,2.95-0.87c1.89-0.53,3.73-1.11,5.57-1.74
				c2.42-0.77,4.79-1.6,7.17-2.47c2.37-0.82,4.74-1.74,7.12-2.66c1.31-0.53,2.37-0.19,2.91,0.05c0.53,0.24,1.55,0.82,2.03,2.18
				C710.2,571.53,713.44,589.2,713.44,607.31z"/>
		</g>
		<g>
			<path class="st0" d="M693.01,496.67c0,31.47-39.56,57.04-88.22,57.04h-0.19c-48.56-0.05-88.07-25.61-88.07-57.04
				s39.61-57.04,88.22-57.04C653.41,439.64,693.01,465.25,693.01,496.67z"/>
		</g>
		<g>
			<g>
				<path class="st0" d="M713.83,570.38v-16.66c15.62,0,28.07-5.17,38.07-15.79c29.39-31.24,25.7-97.66,25.66-98.33l16.63-1.03
					c0.19,3.02,4.2,74.22-30.12,110.75C750.92,563.29,734.02,570.38,713.83,570.38z"/>
			</g>
			<g>
				<rect x="717.01" y="613.09" class="st0" width="82.88" height="16.66"/>
			</g>
			<g>
				<path class="st0" d="M794.4,768.71l-16.66-0.05c0.18-64.21-55.24-79.71-76.61-80.27l0.43-16.66
					C727.46,672.41,794.62,691.14,794.4,768.71z"/>
			</g>
		</g>
		<g>
			<g>
				<path class="st0" d="M486.17,570.38c-20.2,0-37.1-7.09-50.23-21.07c-34.32-36.52-30.31-107.73-30.12-110.75l16.63,1.03
					c-0.04,0.67-3.73,67.09,25.66,98.33c10,10.62,22.45,15.79,38.07,15.79V570.38z"/>
			</g>
			<g>
				<rect x="400.1" y="613.09" class="st0" width="82.88" height="16.66"/>
			</g>
			<g>
				<path class="st0" d="M405.6,768.71c-0.22-77.57,66.95-96.3,92.85-96.97l0.43,16.66c-21.37,0.55-76.8,16.05-76.62,80.27
					L405.6,768.71z"/>
			</g>
		</g>
		<g>
			<path class="st0" d="M607.99,749.42v10.85h-16.66v-10.85c2.76,0.87,5.52,1.6,8.33,2.28
				C602.47,751.02,605.23,750.29,607.99,749.42z"/>
		</g>
	</g>
	<path class="st0" d="M1011.02,588.91c-5.81-217.88-182.05-394.13-399.94-399.94c-3.68-0.1-7.36-0.15-11.09-0.15
		s-7.41,0.05-11.09,0.15c-217.93,5.81-394.13,182.05-399.94,399.94c-0.1,3.68-0.15,7.36-0.15,11.09c0,3.73,0.05,7.41,0.15,11.09
		c5.81,217.88,182.01,394.13,399.94,399.94c3.68,0.1,7.36,0.15,11.09,0.15s7.41-0.05,11.09-0.15
		c217.88-5.81,394.13-182.05,399.94-399.94c0.1-3.68,0.15-7.36,0.15-11.09C1011.17,596.27,1011.12,592.59,1011.02,588.91z
		 M611.09,988.75c-3.68,0.15-7.36,0.19-11.09,0.19s-7.41-0.05-11.09-0.19c-205.68-5.76-371.9-171.98-377.66-377.66
		c-0.15-3.68-0.19-7.36-0.19-11.09c0-3.73,0.05-7.41,0.19-11.09c5.76-205.68,171.98-371.9,377.66-377.66
		c3.68-0.15,7.36-0.19,11.09-0.19s7.41,0.05,11.09,0.19c205.63,5.76,371.9,171.98,377.66,377.66c0.15,3.68,0.19,7.36,0.19,11.09
		c0,3.73-0.05,7.41-0.19,11.09C982.99,816.77,816.72,982.99,611.09,988.75z"/>
	<g>
		<rect x="588.91" y="78" class="st0" width="22.18" height="240.4"/>
	</g>
	<g>
		<rect x="78" y="588.91" class="st0" width="240.4" height="22.18"/>
	</g>
	<g>
		<rect x="588.91" y="881.6" class="st0" width="22.18" height="240.4"/>
	</g>
	<g>
		<rect x="881.6" y="588.91" class="st0" width="240.4" height="22.18"/>
	</g>
</g>
</svg>
