<?xml version="1.0" encoding="utf-8"?>
<!-- Generator: Adobe Illustrator 25.0.1, SVG Export Plug-In . SVG Version: 6.00 Build 0)  -->
<svg version="1.1" id="Layer_1" xmlns="http://www.w3.org/2000/svg" xmlns:xlink="http://www.w3.org/1999/xlink" x="0px" y="0px"
	 viewBox="0 0 100 100" style="enable-background:new 0 0 100 100;" xml:space="preserve">
<style type="text/css">
	.st0{fill:#333333;}
	.st1{fill:#FF6600;}
	.st2{fill:#FFFFFF;}
</style>
<g>
	<g>
		<polygon class="st0" points="72.59,19.96 72.59,46.39 70.47,46.39 70.47,22.08 2.13,22.08 2.13,64.96 49.53,64.96 49.53,67.08 
			0,67.08 0,19.96 		"/>
	</g>
	<path class="st0" d="M29.83,68.17v8.3h12.94v-8.3H29.83z M40.64,74.35h-8.7V70.3h8.7V74.35z"/>
	<rect x="31.95" y="70.3" class="st1" width="8.7" height="4.05"/>
	<path class="st0" d="M49.53,46.39v30.16h47.56V46.39H49.53z M94.97,74.43H51.65V48.52h43.32V74.43z"/>
	<rect x="51.65" y="48.52" class="st2" width="43.32" height="25.91"/>
	<g>
		<polygon class="st0" points="100,77.39 100,80.04 46.62,80.04 46.62,79.77 23.77,79.77 23.77,77.65 46.62,77.65 46.62,77.39 		"/>
	</g>
	<path class="st2" d="M2.13,22.08v42.88h47.4V46.39h20.94V22.08H2.13z M46.33,45.63h-2.87c-0.15,0.54-0.37,1.07-0.65,1.57l2.03,2.03
		l-2.31,2.31c-0.32,0.32-0.91,0.42-1.45-0.11l-1.25-1.25c-0.5,0.28-1.02,0.49-1.57,0.65v2.87h-4.21v-2.87
		c-0.55-0.16-1.08-0.37-1.58-0.65l-2.03,2.03l-2.31-2.31c-0.21-0.21-0.31-0.51-0.25-0.81c0.04-0.23,0.17-0.44,0.36-0.64l1.25-1.25
		c-0.28-0.5-0.49-1.03-0.65-1.57h-2.87v-4.22h2.87c0.16-0.54,0.37-1.07,0.65-1.57l-1.46-1.49l-0.01-0.01l-0.53-0.54l0.57-0.58
		l1.71-1.72c0.17-0.17,0.4-0.25,0.64-0.26c0.29,0,0.56,0.12,0.81,0.37l1.25,1.25c0.5-0.27,1.03-0.5,1.58-0.65v-2.87h4.21v2.87
		c0.55,0.15,1.07,0.38,1.57,0.65l2.03-2.03l2.31,2.31c0.17,0.17,0.27,0.4,0.27,0.64c0,0.29-0.13,0.56-0.38,0.81l-1.25,1.25
		c0.28,0.5,0.5,1.03,0.65,1.57h2.87V45.63z"/>
	<path class="st0" d="M46.33,45.63v-4.22h-2.87c-0.15-0.54-0.37-1.07-0.65-1.57l1.25-1.25c0.25-0.25,0.38-0.52,0.38-0.81
		c0-0.24-0.1-0.47-0.27-0.64l-2.31-2.31l-2.03,2.03c-0.5-0.27-1.02-0.5-1.57-0.65v-2.87h-4.21v2.87c-0.55,0.15-1.08,0.38-1.58,0.65
		l-1.25-1.25c-0.25-0.25-0.52-0.37-0.81-0.37c-0.24,0.01-0.47,0.09-0.64,0.26l-1.71,1.72l-0.57,0.58l0.53,0.54l0.01,0.01l1.46,1.49
		c-0.28,0.5-0.49,1.03-0.65,1.57h-2.87v4.22h2.87c0.16,0.54,0.37,1.07,0.65,1.57l-1.25,1.25c-0.19,0.2-0.32,0.41-0.36,0.64
		c-0.06,0.3,0.04,0.6,0.25,0.81l2.31,2.31l2.03-2.03c0.5,0.28,1.03,0.49,1.58,0.65v2.87h4.21v-2.87c0.55-0.16,1.07-0.37,1.57-0.65
		l1.25,1.25c0.54,0.53,1.13,0.43,1.45,0.11l2.31-2.31l-2.03-2.03c0.28-0.5,0.5-1.03,0.65-1.57H46.33z M42.8,49.23l-0.94,0.94
		l-1.28-1.27c-0.31-0.32-0.8-0.38-1.18-0.14c-0.78,0.49-1.66,0.79-2.58,0.89v2.61h-1.34v-2.61c-1.16-0.12-2.26-0.57-3.19-1.32h-0.01
		l-1.84,1.84l-0.94-0.94c0,0,1.8-1.8,1.84-1.84c0,0,0,0,0-0.01c-0.74-0.93-1.2-2.03-1.32-3.2h-2.61v-1.33h2.61
		c0.12-1.16,0.58-2.26,1.32-3.19v-0.01l-1.84-1.84l0.94-0.94c0,0,0.45,0.45,0.9,0.91c0.46,0.45,0.92,0.91,0.95,0.93
		c0.93-0.74,2.03-1.2,3.19-1.32v-2.61h1.34v2.61c1.17,0.12,2.26,0.58,3.19,1.32h0.01l1.84-1.84l0.94,0.94l-1.28,1.28
		c-0.31,0.31-0.36,0.8-0.13,1.18c0.49,0.79,0.8,1.66,0.9,2.58h2.6v1.33h-2.6c-0.13,1.17-0.58,2.26-1.33,3.2c0,0.01,0,0.01,0,0.01
		L42.8,49.23z"/>
	<path class="st0" d="M42.29,44.18h2.61v-1.33h-2.61c-0.1-0.92-0.4-1.8-0.89-2.59c-0.24-0.38-0.18-0.86,0.13-1.18l1.28-1.28
		l-0.94-0.94l-1.84,1.84c0,0,0,0-0.01,0c-0.93-0.74-2.02-1.19-3.19-1.32v-2.61h-1.33v2.61c-1.16,0.12-2.26,0.58-3.19,1.32
		c0,0,0,0,0,0c-0.05-0.05-1.84-1.84-1.84-1.84l-0.94,0.94l1.84,1.84c0,0,0,0.01,0,0.01c-0.74,0.93-1.19,2.03-1.32,3.2h-2.61v1.33
		h2.61c0.12,1.17,0.58,2.26,1.32,3.2c0,0,0,0,0,0c-0.04,0.05-1.84,1.84-1.84,1.84l0.94,0.94l1.84-1.84c0,0,0,0,0.01,0
		c0.93,0.75,2.03,1.2,3.19,1.32v2.61h1.33v-2.61c0.92-0.1,1.8-0.4,2.58-0.89c0.38-0.24,0.87-0.18,1.18,0.14l1.28,1.28l0.94-0.94
		l-1.84-1.84c0,0,0,0,0-0.01C41.71,46.44,42.16,45.35,42.29,44.18z M39.03,48.41c-5.22,2.68-10.45-2.55-7.77-7.77
		c0.44-0.86,1.15-1.57,2.01-2.01c5.22-2.68,10.45,2.55,7.76,7.76C40.6,47.26,39.89,47.97,39.03,48.41z"/>
	<g>
		<path class="st1" d="M40.54,46.1c-0.4,0.78-1.03,1.41-1.8,1.81c-4.69,2.4-9.38-2.29-6.97-6.97c0.4-0.77,1.03-1.41,1.81-1.8
			C38.25,36.72,42.95,41.42,40.54,46.1z"/>
	</g>
	<circle class="st1" cx="36.15" cy="43.52" r="4.57"/>
	<g>
		<path class="st1" d="M71.73,57.28v8.4h-1.92v-8.4H71.73z"/>
		<path class="st1" d="M78.81,59.12h-2.16v6.55h-1.92v-6.55h-2.16v-1.85h6.24V59.12z"/>
	</g>
</g>
</svg>
