<?xml version="1.0" encoding="utf-8"?>
<!-- Generator: Adobe Illustrator 23.0.0, SVG Export Plug-In . SVG Version: 6.00 Build 0)  -->
<svg version="1.1" id="Layer_1" xmlns="http://www.w3.org/2000/svg" xmlns:xlink="http://www.w3.org/1999/xlink" x="0px" y="0px"
	 viewBox="0 0 1200 1200" style="enable-background:new 0 0 1200 1200;" xml:space="preserve">
<style type="text/css">
	.st0{fill:#333333;}
	.st1{fill:#FF6600;}
</style>
<g>
	<path class="st0" d="M2001.78,82.21l-0.05,804.21h22.01l0.05-456.28v-22.01l0.05-303.92h550.28v991.56h-550.37v-50.32h-22.01v72.32
		h594.39V82.21H2001.78z"/>
	<path class="st1" d="M2023.83,104.22l-0.05,303.92h550.33V104.22H2023.83z M2115.64,364.97h-22.01V173.41h22.01V364.97z"/>
	<g>
		<polygon class="st0" points="2803,494.67 2803,1060.23 2591.54,1060.23 2591.54,1038.17 2780.99,1038.17 2780.99,516.67 
			2591.54,516.67 2591.54,494.67 		"/>
	</g>
	<path class="st1" d="M2700.96,835.03c0,60.36-49.1,109.93-109.51,110.5V724.53C2651.86,725.1,2700.96,774.67,2700.96,835.03z"/>
	<path class="st0" d="M2722.97,835.03c0,70.88-56.49,129.32-126.85,132.36c-1.5,0.09-2.99,0.14-4.49,0.14l-0.19-22.01
		c1.54,0,3.13-0.05,4.67-0.14c58.26-2.99,104.84-51.53,104.84-110.36c0-58.82-46.58-107.36-104.84-110.36
		c-1.54-0.09-3.13-0.14-4.67-0.14l0.19-22.05c1.5,0,2.99,0.05,4.49,0.14C2666.48,705.66,2722.97,764.11,2722.97,835.03z"/>
	<path class="st1" d="M2780.99,647.96v390.21h-184.88v-70.78c70.36-3.04,126.85-61.49,126.85-132.36
		c0-70.92-56.49-129.37-126.85-132.41v-54.66H2780.99z"/>
	<rect x="2591.54" y="625.91" class="st0" width="200.43" height="22.05"/>
	<g>
		<path class="st0" d="M2711.99,552.23c-16.21,0-29.39,13.18-29.39,29.39c0,16.21,13.18,29.39,29.39,29.39s29.39-13.18,29.39-29.39
			C2741.38,565.4,2728.2,552.23,2711.99,552.23z M2711.99,589c-4.06,0-7.38-3.32-7.38-7.38s3.32-7.34,7.38-7.34s7.34,3.27,7.34,7.34
			S2716.05,589,2711.99,589z"/>
	</g>
	<path class="st0" d="M2646.44,552.23c-16.21,0-29.39,13.18-29.39,29.39c0,16.21,13.18,29.39,29.39,29.39
		c16.17,0,29.39-13.18,29.39-29.39C2675.83,565.4,2662.6,552.23,2646.44,552.23z M2646.44,589c-4.06,0-7.38-3.32-7.38-7.38
		s3.32-7.34,7.38-7.34s7.34,3.27,7.34,7.34S2650.5,589,2646.44,589z"/>
	<path class="st1" d="M2596.12,516.67v109.23h184.88V516.67H2596.12z M2646.44,611c-16.21,0-29.39-13.18-29.39-29.39
		c0-16.21,13.18-29.39,29.39-29.39c16.17,0,29.39,13.18,29.39,29.39C2675.83,597.83,2662.6,611,2646.44,611z M2711.99,611
		c-16.21,0-29.39-13.18-29.39-29.39c0-16.21,13.18-29.39,29.39-29.39s29.39,13.18,29.39,29.39
		C2741.38,597.83,2728.2,611,2711.99,611z"/>
	<path class="st1" d="M2653.77,581.62c0,4.06-3.27,7.38-7.34,7.38s-7.38-3.32-7.38-7.38s3.32-7.34,7.38-7.34
		S2653.77,577.55,2653.77,581.62z"/>
	<path class="st1" d="M2719.32,581.62c0,4.06-3.27,7.38-7.34,7.38s-7.38-3.32-7.38-7.38s3.32-7.34,7.38-7.34
		S2719.32,577.55,2719.32,581.62z"/>
	<g>
		<rect x="2012.81" y="408.14" class="st0" width="572.29" height="22.01"/>
	</g>
	<g>
		<rect x="2093.63" y="173.41" class="st0" width="22.01" height="191.56"/>
	</g>
	<g>
		<rect x="2093.63" y="477.29" class="st0" width="22.01" height="190.25"/>
	</g>
	<path class="st0" d="M2058.69,886.42h-91.81L1921,965.94l45.88,79.52h91.81l45.97-79.52L2058.69,886.42z M2023.74,1009.53
		c-3.5,0.89-7.19,1.36-10.98,1.36c-3.78,0-7.48-0.47-11.03-1.36c-19.44-4.95-33.87-22.61-33.87-43.59
		c0-21.02,14.44-38.69,33.87-43.64c3.55-0.89,7.24-1.35,11.03-1.35c3.78,0,7.48,0.47,10.98,1.35c19.58,4.91,33.97,22.57,33.97,43.64
		C2057.71,986.97,2043.32,1004.67,2023.74,1009.53z"/>
	<path class="st1" d="M2057.71,965.94c0,21.02-14.39,38.73-33.97,43.59c-3.5,0.89-7.19,1.36-10.98,1.36
		c-3.78,0-7.48-0.47-11.03-1.36c-19.44-4.95-33.87-22.61-33.87-43.59c0-21.02,14.44-38.69,33.87-43.64
		c3.55-0.89,7.24-1.35,11.03-1.35c3.78,0,7.48,0.47,10.98,1.35C2043.32,927.21,2057.71,944.87,2057.71,965.94z"/>
	<path class="st1" d="M2023.79,430.15l-0.05,456.28h34.95l45.97,79.52l-45.97,79.52h-34.95v50.32h550.37V430.15H2023.79z
		 M2115.64,667.54h-22.01V477.29h22.01V667.54z"/>
</g>
<g>
	<g>
		<polygon class="st0" points="835.87,286.37 835.87,562.35 813.72,562.35 813.72,308.52 100.2,308.52 100.2,756.16 595.08,756.16 
			595.08,778.32 78,778.32 78,286.37 		"/>
	</g>
	<path class="st0" d="M389.38,789.69v86.63h135.11v-86.63H389.38z M502.33,854.17h-90.79v-42.28h90.79V854.17z"/>
	<rect x="411.54" y="811.89" class="st1" width="90.79" height="42.28"/>
	<g>
		<path class="st0" d="M595.08,562.35v314.82h496.53V562.35H595.08z M1069.45,855.02H617.23V584.55h452.22V855.02z"/>
		<rect x="617.23" y="584.55" class="st1" width="452.22" height="270.47"/>
	</g>
	<g>
		<polygon class="st0" points="1122,885.92 1122,913.63 564.69,913.63 564.69,910.83 326.18,910.83 326.18,888.67 564.69,888.67 
			564.69,885.92 		"/>
	</g>
	<path class="st0" d="M361.58,472.66c0.34,0.55,0.76,1.02,1.23,1.49l15.7,15.71L361.58,472.66z M362.81,458.65
		c-0.3,0.3-0.59,0.64-0.85,0.98l19.74-19.86L362.81,458.65z"/>
	<path class="st1" d="M100.2,308.52v447.63h494.88V562.35h218.64V308.52H100.2z M573,556.66H539.9c-1.83,6.32-4.37,12.44-7.6,18.21
		l23.47,23.43l-26.66,26.66c-3.74,3.74-10.57,4.92-16.72-1.27l-14.47-14.43c-5.77,3.23-11.84,5.73-18.17,7.56v33.15h-48.64v-33.15
		c-6.32-1.83-12.44-4.33-18.21-7.56l-7.22,7.22l-8.49,8.49l-7.73,7.77l-26.66-26.66c-2.5-2.5-3.57-5.94-2.93-9.42
		c0.51-2.59,1.91-5.05,4.2-7.34l14.43-14.43c-3.23-5.77-5.73-11.88-7.56-18.21h-33.15v-48.64h33.15c1.83-6.32,4.33-12.39,7.56-18.17
		l-15.7-15.71c-0.47-0.47-0.89-0.93-1.23-1.49l-0.13-0.17l-6.11-6.2l6.62-6.66c0.25-0.34,0.55-0.68,0.85-0.98l18.89-18.89
		c2-1.99,4.63-2.89,7.43-3.1c3.31,0,6.45,1.44,9.3,4.33l14.47,14.43c5.77-3.18,11.88-5.73,18.21-7.56v-33.11h48.64v33.11
		c6.32,1.83,12.39,4.37,18.17,7.56L521.39,432L548,458.65c2,2,3.1,4.63,3.1,7.43c0,3.27-1.44,6.41-4.33,9.3l-14.47,14.47
		c3.23,5.77,5.77,11.84,7.6,18.17H573V556.66z"/>
	<path class="st0" d="M573,556.66v-48.64H539.9c-1.83-6.32-4.37-12.39-7.6-18.17l14.47-14.47c2.89-2.89,4.33-6.03,4.33-9.3
		c0-2.8-1.1-5.43-3.1-7.43L521.39,432l-23.47,23.43c-5.77-3.18-11.84-5.73-18.17-7.56v-33.11h-48.64v33.11
		c-6.32,1.83-12.44,4.37-18.21,7.56L398.42,441c-2.84-2.89-5.98-4.33-9.3-4.33c-2.8,0.21-5.43,1.1-7.43,3.1l-19.74,19.86l-6.62,6.66
		l6.11,6.2l0.13,0.17l16.94,17.19c-3.23,5.77-5.73,11.84-7.56,18.17h-33.15v48.64h33.15c1.83,6.32,4.33,12.44,7.56,18.21
		l-14.43,14.43c-2.29,2.29-3.69,4.75-4.2,7.34c-0.64,3.48,0.42,6.92,2.93,9.42l26.66,26.66l7.73-7.77l8.49-8.49l7.22-7.22
		c5.77,3.23,11.88,5.73,18.21,7.56v33.15h48.64v-33.15c6.32-1.83,12.39-4.33,18.17-7.56l14.47,14.43c6.15,6.2,12.99,5.01,16.72,1.27
		l26.66-26.66l-23.47-23.43c3.23-5.77,5.77-11.88,7.6-18.21H573z M532.26,598.3l-10.87,10.87l-14.77-14.73
		c-3.65-3.65-9.25-4.29-13.67-1.57c-9.04,5.69-19.19,9.17-29.84,10.31v30.14H447.7v-30.14c-13.46-1.44-26.1-6.66-36.89-15.28
		c-0.04,0-0.08,0-0.08,0l-21.27,21.27l-10.91-10.87c0,0,20.8-20.76,21.31-21.31c0,0,0,0,0-0.04c-8.62-10.78-13.84-23.43-15.28-36.93
		h-30.14v-15.37h30.14c1.44-13.5,6.66-26.15,15.24-36.93c0.04,0,0.04-0.04,0-0.08l-21.22-21.27l10.87-10.87
		c0,0,20.71,20.76,21.31,21.31c0,0,0,0,0.04-0.04c10.74-8.57,23.43-13.84,36.89-15.28v-30.14h15.41v30.14
		c13.5,1.49,26.19,6.71,36.89,15.28c0.04,0.04,0.08,0.04,0.08,0l21.31-21.27l10.87,10.87l-14.77,14.77
		c-3.61,3.65-4.24,9.21-1.53,13.63c5.65,9.13,9.17,19.23,10.31,29.88h30.09v15.37h-30.09c-1.44,13.5-6.66,26.1-15.28,36.93
		c-0.04,0.04-0.04,0.08,0,0.08L532.26,598.3z"/>
	<path class="st1" d="M526.27,540.02h30.09v-15.37h-30.09c-1.15-10.65-4.67-20.76-10.31-29.88c-2.72-4.41-2.08-9.97,1.53-13.63
		l14.77-14.77l-10.87-10.87l-21.31,21.27c0,0.04-0.04,0.04-0.08,0c-10.7-8.57-23.39-13.79-36.89-15.28v-30.14H447.7v30.14
		c-13.46,1.44-26.15,6.71-36.89,15.28c-0.04,0.04-0.04,0.04-0.04,0.04c-0.59-0.55-21.31-21.31-21.31-21.31l-10.87,10.87l21.22,21.27
		c0.04,0.04,0.04,0.08,0,0.08c-8.57,10.78-13.79,23.43-15.24,36.93h-30.14v15.37h30.14c1.44,13.5,6.66,26.15,15.28,36.93
		c0,0.04,0,0.04,0,0.04c-0.51,0.55-21.31,21.31-21.31,21.31l10.91,10.87l21.27-21.27c0,0,0.04,0,0.08,0
		c10.78,8.62,23.43,13.84,36.89,15.28v30.14h15.41v-30.14c10.65-1.15,20.8-4.63,29.84-10.31c4.41-2.72,10.02-2.08,13.67,1.57
		l14.77,14.73l10.87-10.87l-21.27-21.27c-0.04,0-0.04-0.04,0-0.08C519.61,566.13,524.83,553.52,526.27,540.02z M488.66,588.84
		c-60.32,30.94-120.67-29.42-89.73-89.73c5.14-9.93,13.29-18.12,23.26-23.22c60.27-30.99,120.67,29.42,89.69,89.69
		C506.79,575.55,498.6,583.7,488.66,588.84z"/>
	<g>
		<path class="st0" d="M511.88,565.58c-5.09,9.97-13.29,18.12-23.22,23.26c-60.32,30.94-120.67-29.42-89.73-89.73
			c5.14-9.93,13.29-18.12,23.26-23.22C482.47,444.9,542.87,505.3,511.88,565.58z"/>
	</g>
	<circle class="st1" cx="455.42" cy="532.34" r="47.73"/>
</g>
</svg>
