<?xml version="1.0" encoding="utf-8"?>
<!-- Generator: Adobe Illustrator 25.0.1, SVG Export Plug-In . SVG Version: 6.00 Build 0)  -->
<svg version="1.1" id="Layer_1" xmlns="http://www.w3.org/2000/svg" xmlns:xlink="http://www.w3.org/1999/xlink" x="0px" y="0px"
	 viewBox="0 0 100 100" style="enable-background:new 0 0 100 100;" xml:space="preserve">
<style type="text/css">
	.st0{fill:#FFFFFF;}
	.st1{fill:#333333;}
	.st2{fill:#FF6600;}
	.st3{fill:none;}
</style>
<g>
	<circle class="st0" cx="50.06" cy="50" r="46.6"/>
	<g>
		<polygon class="st1" points="11.86,37.01 5.71,42.73 4.09,40.97 0,36.58 1.55,35.13 4.64,38.46 5.82,39.72 10.42,35.45 		"/>
	</g>
	<path class="st1" d="M50.02,26.57c-5.94,0-10.78,4.83-10.78,10.78c0,5.94,4.83,10.77,10.78,10.77c5.94,0,10.78-4.83,10.78-10.77
		C60.79,31.41,55.96,26.57,50.02,26.57z M50.02,46.01c-4.77,0-8.66-3.88-8.66-8.66c0-4.78,3.88-8.66,8.66-8.66
		c4.77,0,8.66,3.88,8.66,8.66C58.67,42.13,54.79,46.01,50.02,46.01z"/>
	<path class="st2" d="M58.67,37.35c0,4.77-3.88,8.66-8.66,8.66c-4.77,0-8.66-3.88-8.66-8.66c0-4.78,3.88-8.66,8.66-8.66
		C54.79,28.69,58.67,32.58,58.67,37.35z"/>
	<g>
		<path class="st1" d="M70.89,34.23c0,5.95-4.84,10.78-10.78,10.78c-0.17,0-0.34,0-0.51-0.01l0.08-2.12
			c0.14,0.01,0.28,0.01,0.43,0.01c4.77,0,8.66-3.88,8.66-8.66c0-4.77-3.88-8.65-8.66-8.65c-1.9,0-3.7,0.6-5.22,1.74l-1.28-1.69
			c1.89-1.42,4.13-2.17,6.5-2.17C66.05,23.46,70.89,28.29,70.89,34.23z"/>
	</g>
	<g>
		<path class="st1" d="M46.58,25.5l-1.16,1.77c-1.4-0.92-3.05-1.4-4.73-1.4c-4.77,0-8.66,3.88-8.66,8.66c0,4.73,3.85,8.62,8.59,8.65
			l-0.02,2.12C34.7,45.26,29.9,40.42,29.9,34.53c0-5.95,4.83-10.78,10.78-10.78C42.78,23.75,44.82,24.36,46.58,25.5z"/>
	</g>
	<g>
		<path class="st2" d="M34.7,49.53l-1.86,1.02l-1.28-2.33c-8.94,1.27-11.45,5.36-11.57,18.84h5.83v2.12h-7.95v-1.06
			c0-14.09,2.04-20.62,14.15-22.1l0.71-0.09L34.7,49.53z"/>
	</g>
	<g>
		<path class="st1" d="M95.05,62.05C89.62,82.4,71.1,96.61,50.02,96.61c-21.09,0-39.6-14.21-45.03-34.56l2.05-0.55
			c5.18,19.42,22.86,32.98,42.98,32.98c20.13,0,37.8-13.56,42.98-32.98L95.05,62.05z"/>
	</g>
	<g>
		<path class="st1" d="M95.05,37.95L93,38.5C87.82,19.08,70.14,5.52,50.02,5.52c-20.13,0-37.8,13.56-42.98,32.98l-2.05-0.55
			C10.41,17.6,28.93,3.39,50.02,3.39C71.1,3.39,89.62,17.6,95.05,37.95z"/>
	</g>
	<g>
		<polygon class="st1" points="100,62.43 98.38,63.8 95.56,60.47 94.33,59.02 89.54,63.08 88.17,61.46 94.57,56.03 96.09,57.82 		
			"/>
	</g>
	<path class="st1" d="M34.7,49.53l-1.86,1.02l-1.28-2.33c-8.94,1.27-11.45,5.36-11.57,18.84h5.83v2.12h-7.95v-1.06
		c0-14.09,2.04-20.62,14.15-22.1l0.71-0.09L34.7,49.53z"/>
	<path class="st1" d="M46.58,25.5l-1.16,1.77c-1.4-0.92-3.05-1.4-4.73-1.4c-4.77,0-8.66,3.88-8.66,8.66c0,4.73,3.85,8.62,8.59,8.65
		l-0.02,2.12C34.7,45.26,29.9,40.42,29.9,34.53c0-5.95,4.83-10.78,10.78-10.78C42.78,23.75,44.82,24.36,46.58,25.5z"/>
	<path class="st3" d="M50.02,26.57c-5.95,0-10.78,4.83-10.78,10.78c0,5.94,4.83,10.77,10.78,10.77c5.94,0,10.78-4.83,10.78-10.77
		C60.8,31.41,55.96,26.57,50.02,26.57z M50.02,46.01c-4.77,0-8.66-3.88-8.66-8.66c0-4.78,3.88-8.66,8.66-8.66
		c4.77,0,8.66,3.88,8.66,8.66C58.67,42.13,54.79,46.01,50.02,46.01z"/>
	<g>
		<path class="st1" d="M58.72,48.53L58,48.44l-6.72,12.29h-2.45L42.1,48.44l-0.71,0.09C29.29,50,27.24,56.53,27.24,70.62v1.06h45.62
			v-1.06C72.87,56.53,70.82,50,58.72,48.53z M29.37,69.56C29.49,56.08,32,51.99,40.94,50.73l6.63,12.12h4.97l6.63-12.12
			c8.94,1.27,11.45,5.35,11.57,18.83H29.37z"/>
	</g>
	<g>
		<path class="st1" d="M82.92,68.11v1.06h-8.63v-2.12h6.5c-0.12-13.48-2.62-17.57-11.56-18.84l-1.41,2.59l-1.86-1.02l2.11-3.85
			l0.71,0.09C80.88,47.49,82.92,54.02,82.92,68.11z"/>
	</g>
	<path class="st1" d="M70.89,34.23c0,5.95-4.84,10.78-10.78,10.78c-0.17,0-0.34,0-0.51-0.01l0.08-2.12
		c0.14,0.01,0.28,0.01,0.43,0.01c4.77,0,8.66-3.88,8.66-8.66c0-4.77-3.88-8.65-8.66-8.65c-1.9,0-3.7,0.6-5.22,1.74l-1.28-1.69
		c1.89-1.42,4.13-2.17,6.5-2.17C66.05,23.46,70.89,28.29,70.89,34.23z"/>
</g>
</svg>
